<svg id="slide3" xmlns="http://www.w3.org/2000/svg" viewBox="0 0 1500 1000"><defs><style>.cls-1{fill:#fdee0a;}</style></defs><path class="cls-1" d="M370.88,404.64a8.5,8.5,0,0,0-1-4.36,3.44,3.44,0,0,0-3.2-1.8,4,4,0,0,0-3.52,1.56,5.87,5.87,0,0,0-1.12,3.48,5.73,5.73,0,0,0,1.8,4.44,16.63,16.63,0,0,0,4.53,2.84c1.81.8,3.75,1.61,5.84,2.44a26.2,26.2,0,0,1,5.83,3.24,16,16,0,0,1,4.53,5.24,17.41,17.41,0,0,1,1.8,8.44q0,9.12-5.21,13.24t-15,4.12a39.39,39.39,0,0,1-8.2-.76,14.84,14.84,0,0,1-6-2.64,11.87,11.87,0,0,1-3.71-4.92,19.29,19.29,0,0,1-1.29-7.52v-2h14.41V431q0,3.68,1.35,5.16a4.56,4.56,0,0,0,3.53,1.48,4.21,4.21,0,0,0,3.55-1.6,6.19,6.19,0,0,0,1.24-3.92,5.85,5.85,0,0,0-1.71-4.44,15.12,15.12,0,0,0-4.33-2.8q-2.6-1.16-5.63-2.36a24.88,24.88,0,0,1-5.65-3.12,15.31,15.31,0,0,1-4.31-5,16.81,16.81,0,0,1-1.72-8.16q0-8.72,4.64-13.28t14.08-4.56q9.75,0,14.12,4.2T384.8,406H370.88Z"/><path class="cls-1" d="M422.32,389.52v12.16h-19v9.76h17.76v11.68H403.36v11.36H423v12.16H388.48V389.52Z"/><path class="cls-1" d="M459.2,389.52v12.16h-19v9.76H458v11.68H440.24v11.36h19.68v12.16H425.36V389.52Z"/><path class="cls-1" d="M473.28,402.16V389.52H510.4v12.64H499.2v44.48H484.32V402.16Z"/><path class="cls-1" d="M525.52,389.52v21h9.12v-21h14.88v57.12H534.64V423.12h-9.12v23.52H510.64V389.52Z"/><path class="cls-1" d="M587.28,389.52v12.16h-19v9.76h17.76v11.68H568.32v11.36H588v12.16H553.44V389.52Z"/><path class="cls-1" d="M629.76,400.24a3.29,3.29,0,0,0-3.12-1.76,3.9,3.9,0,0,0-2.68.88,5.9,5.9,0,0,0-1.52,3.12,34.24,34.24,0,0,0-.68,6q-.16,3.8-.16,9.56t.16,9.56a34.24,34.24,0,0,0,.68,6A5.9,5.9,0,0,0,624,436.8a3.9,3.9,0,0,0,2.68.88,3.58,3.58,0,0,0,2.24-.68,4.33,4.33,0,0,0,1.36-2.28,20.59,20.59,0,0,0,.68-4.28q.2-2.69.2-6.76h14.4v4.24a25.75,25.75,0,0,1-1.6,9.84,15.43,15.43,0,0,1-4.24,6,14.08,14.08,0,0,1-6,3,31.81,31.81,0,0,1-7,.76A29.3,29.3,0,0,1,616.4,446a12.33,12.33,0,0,1-6.24-5.08,23.82,23.82,0,0,1-3.08-9.2,94.43,94.43,0,0,1-.84-13.64,81.08,81.08,0,0,1,1-13.84,23.5,23.5,0,0,1,3.4-9.2A13.56,13.56,0,0,1,617,390a26.28,26.28,0,0,1,9.68-1.56,25.27,25.27,0,0,1,8.56,1.28,14.37,14.37,0,0,1,5.72,3.64,14.2,14.2,0,0,1,3.2,5.68,25.8,25.8,0,0,1,1,7.48v3.6h-14.4v-3.2C630.72,403.63,630.4,401.41,629.76,400.24Z"/><path class="cls-1" d="M662.08,389.52v57.12H647.2V389.52Z"/><path class="cls-1" d="M688.64,389.52a20.67,20.67,0,0,1,7.24,1.12,12.41,12.41,0,0,1,4.88,3.16,12.23,12.23,0,0,1,2.72,4.84,21.07,21.07,0,0,1,.84,6.08A16.59,16.59,0,0,1,702,414q-2.32,3.53-7.44,4.32v.16c3.57.32,6,1.57,7.36,3.76s2,5.2,2,9v7.2c0,.8,0,1.56.08,2.28a17.23,17.23,0,0,0,.24,2,5.33,5.33,0,0,0,.4,1.36c.21.32.43.63.64.92a3.21,3.21,0,0,0,1,.84v.8H690.48a10.24,10.24,0,0,1-.84-2.64,28.76,28.76,0,0,1-.4-3c-.08-1-.13-2-.16-2.92s0-1.69,0-2.28v-3.84a27.73,27.73,0,0,0-.24-4,6.31,6.31,0,0,0-.84-2.52,3.22,3.22,0,0,0-1.52-1.28,6.27,6.27,0,0,0-2.28-.36h-3.92v22.88H665.36V389.52Zm-5.44,24.16a5.72,5.72,0,0,0,4.72-1.88,7.59,7.59,0,0,0,1.52-4.92q0-3.6-1.48-5.12t-4.84-1.52h-2.88v13.44Z"/><path class="cls-1" d="M730,400.24a3.29,3.29,0,0,0-3.12-1.76,3.9,3.9,0,0,0-2.68.88,5.9,5.9,0,0,0-1.52,3.12,34.24,34.24,0,0,0-.68,6q-.16,3.8-.16,9.56t.16,9.56a34.24,34.24,0,0,0,.68,6,5.9,5.9,0,0,0,1.52,3.12,3.9,3.9,0,0,0,2.68.88,3.58,3.58,0,0,0,2.24-.68,4.33,4.33,0,0,0,1.36-2.28,20.59,20.59,0,0,0,.68-4.28q.2-2.69.2-6.76h14.4v4.24a25.75,25.75,0,0,1-1.6,9.84,15.43,15.43,0,0,1-4.24,6,14.08,14.08,0,0,1-6,3,31.81,31.81,0,0,1-7,.76A29.3,29.3,0,0,1,716.64,446a12.33,12.33,0,0,1-6.24-5.08,23.82,23.82,0,0,1-3.08-9.2,94.43,94.43,0,0,1-.84-13.64,81.08,81.08,0,0,1,1-13.84,23.5,23.5,0,0,1,3.4-9.2A13.56,13.56,0,0,1,717.2,390a26.28,26.28,0,0,1,9.68-1.56,25.27,25.27,0,0,1,8.56,1.28,14.37,14.37,0,0,1,5.72,3.64,14.2,14.2,0,0,1,3.2,5.68,25.8,25.8,0,0,1,1,7.48v3.6H731v-3.2C731,403.63,730.64,401.41,730,400.24Z"/><path class="cls-1" d="M762.24,430.72c0,2.77.4,4.63,1.2,5.56a4.54,4.54,0,0,0,6.56,0c.8-.93,1.2-2.79,1.2-5.56v-41.2h14.88V427a33.4,33.4,0,0,1-1.28,10,15.36,15.36,0,0,1-3.72,6.4,12.78,12.78,0,0,1-6,3.28,39.58,39.58,0,0,1-16.6,0,12.72,12.72,0,0,1-6.08-3.28,15.25,15.25,0,0,1-3.72-6.4,33.4,33.4,0,0,1-1.28-10V389.52h14.88Z"/><path class="cls-1" d="M804.24,389.52v45h18.32v12.16h-33.2V389.52Z"/><path class="cls-1" d="M851.28,389.52l13.92,57.12H849.36l-1.52-10H836l-1.52,10h-15.6l13.68-57.12Zm-9.44,11.68-4.08,24.24h8.32L842,401.2Z"/><path class="cls-1" d="M887.76,389.52a20.71,20.71,0,0,1,7.24,1.12,12.48,12.48,0,0,1,4.88,3.16,12.23,12.23,0,0,1,2.72,4.84,21.07,21.07,0,0,1,.84,6.08,16.68,16.68,0,0,1-2.32,9.28q-2.32,3.53-7.44,4.32v.16q5.36.48,7.36,3.76t2,9v7.2c0,.8,0,1.56.08,2.28a17.23,17.23,0,0,0,.24,2,5,5,0,0,0,.4,1.36c.21.32.42.63.64.92a3.21,3.21,0,0,0,1,.84v.8H889.6a9.52,9.52,0,0,1-.84-2.64,28.76,28.76,0,0,1-.4-3c-.08-1-.14-2-.16-2.92s0-1.69,0-2.28v-3.84a27.73,27.73,0,0,0-.24-4,6.31,6.31,0,0,0-.84-2.52,3.22,3.22,0,0,0-1.52-1.28,6.34,6.34,0,0,0-2.28-.36h-3.92v22.88H864.48V389.52Zm-5.44,24.16A5.73,5.73,0,0,0,887,411.8a7.59,7.59,0,0,0,1.52-4.92c0-2.4-.5-4.11-1.48-5.12s-2.6-1.52-4.84-1.52h-2.88v13.44Z"/><path class="cls-1" d="M946.72,400.24a3.29,3.29,0,0,0-3.12-1.76,3.88,3.88,0,0,0-2.68.88,5.83,5.83,0,0,0-1.52,3.12,33.31,33.31,0,0,0-.68,6q-.16,3.8-.16,9.56t.16,9.56a33.31,33.31,0,0,0,.68,6,5.83,5.83,0,0,0,1.52,3.12,3.88,3.88,0,0,0,2.68.88,3.6,3.6,0,0,0,2.24-.68,4.39,4.39,0,0,0,1.36-2.28,21.29,21.29,0,0,0,.68-4.28q.2-2.69.2-6.76h14.4v4.24a26,26,0,0,1-1.6,9.84,15.43,15.43,0,0,1-4.24,6,14.14,14.14,0,0,1-6,3,31.81,31.81,0,0,1-7,.76A29.26,29.26,0,0,1,933.36,446a12.33,12.33,0,0,1-6.24-5.08,23.65,23.65,0,0,1-3.08-9.2,94.43,94.43,0,0,1-.84-13.64,81.08,81.08,0,0,1,1-13.84,23.34,23.34,0,0,1,3.4-9.2,13.51,13.51,0,0,1,6.32-5.08,26.28,26.28,0,0,1,9.68-1.56,25.27,25.27,0,0,1,8.56,1.28,13.68,13.68,0,0,1,8.92,9.32,26.14,26.14,0,0,1,1,7.48v3.6h-14.4v-3.2C947.68,403.63,947.36,401.41,946.72,400.24Z"/><path class="cls-1" d="M979,430.72c0,2.77.4,4.63,1.2,5.56a4.53,4.53,0,0,0,6.55,0c.81-.93,1.21-2.79,1.21-5.56v-41.2h14.87V427a33.43,33.43,0,0,1-1.27,10,15.37,15.37,0,0,1-3.73,6.4,12.68,12.68,0,0,1-6,3.28,39.53,39.53,0,0,1-16.59,0,12.72,12.72,0,0,1-6.08-3.28,15.25,15.25,0,0,1-3.72-6.4,33.08,33.08,0,0,1-1.28-10V389.52H979Z"/><path class="cls-1" d="M1002.48,402.16V389.52h37.12v12.64h-11.2v44.48h-14.88V402.16Z"/><path class="cls-1" d="M1039.19,404.44a24.3,24.3,0,0,1,3.44-9.2A14,14,0,0,1,1049,390a28.92,28.92,0,0,1,19.2,0,14,14,0,0,1,6.32,5.2,24.13,24.13,0,0,1,3.44,9.2,90,90,0,0,1,0,27.28,24.13,24.13,0,0,1-3.44,9.2,13.22,13.22,0,0,1-6.32,5.08,31.08,31.08,0,0,1-19.2,0,13.26,13.26,0,0,1-6.32-5.08,24.3,24.3,0,0,1-3.44-9.2,90,90,0,0,1,0-27.28Zm14.48,23.2a35.22,35.22,0,0,0,.68,6,6,6,0,0,0,1.52,3.12,4.52,4.52,0,0,0,5.36,0,5.83,5.83,0,0,0,1.52-3.12,33.31,33.31,0,0,0,.68-6q.16-3.79.16-9.56t-.16-9.56a33.31,33.31,0,0,0-.68-6,5.83,5.83,0,0,0-1.52-3.12,4.52,4.52,0,0,0-5.36,0,6,6,0,0,0-1.52,3.12,35.22,35.22,0,0,0-.68,6c-.1,2.53-.16,5.72-.16,9.56S1053.57,425.11,1053.67,427.64Z"/><path class="cls-1" d="M1095.43,430.72c0,2.77.4,4.63,1.2,5.56a4.54,4.54,0,0,0,6.56,0c.81-.93,1.2-2.79,1.2-5.56v-41.2h14.88V427a33.43,33.43,0,0,1-1.27,10,15.37,15.37,0,0,1-3.73,6.4,12.73,12.73,0,0,1-6,3.28,39.58,39.58,0,0,1-16.6,0,12.82,12.82,0,0,1-6.08-3.28,15.47,15.47,0,0,1-3.72-6.4,33.4,33.4,0,0,1-1.28-10V389.52h14.88Z"/><path class="cls-1" d="M1119,402.16V389.52h37.12v12.64h-11.2v44.48H1130V402.16Z"/><path class="cls-1" d="M363,479.4a24.13,24.13,0,0,1,3.45-9.2,13.92,13.92,0,0,1,6.31-5.2,28.92,28.92,0,0,1,19.2,0,14,14,0,0,1,6.33,5.2,24.3,24.3,0,0,1,3.43,9.2,90,90,0,0,1,0,27.28,24.3,24.3,0,0,1-3.43,9.2,13.29,13.29,0,0,1-6.33,5.08,31.08,31.08,0,0,1-19.2,0,13.19,13.19,0,0,1-6.31-5.08,24.13,24.13,0,0,1-3.45-9.2,90,90,0,0,1,0-27.28Zm14.49,23.2a34.38,34.38,0,0,0,.67,6,6,6,0,0,0,1.52,3.12,3.93,3.93,0,0,0,2.69.88,3.86,3.86,0,0,0,2.67-.88,5.9,5.9,0,0,0,1.53-3.12,35.22,35.22,0,0,0,.68-6c.1-2.53.16-5.72.16-9.56s-.06-7-.16-9.56a35.22,35.22,0,0,0-.68-6,5.9,5.9,0,0,0-1.53-3.12,3.86,3.86,0,0,0-2.67-.88,3.93,3.93,0,0,0-2.69.88,6,6,0,0,0-1.52,3.12,34.38,34.38,0,0,0-.67,6q-.17,3.79-.16,9.56T377.45,502.6Z"/><path class="cls-1" d="M421.53,464.48l9.59,35.2h.17v-35.2h13.92V521.6H428.88L419,486.32h-.15V521.6H404.88V464.48Z"/><path class="cls-1" d="M460.24,477.12V464.48h37.12v12.64h-11.2V521.6H471.28V477.12Z"/><path class="cls-1" d="M512.48,464.48v21h9.12v-21h14.88V521.6H521.6V498.08h-9.12V521.6H497.6V464.48Z"/><path class="cls-1" d="M574.24,464.48v12.16h-19v9.76H573v11.68H555.28v11.36H575V521.6H540.4V464.48Z"/><path class="cls-1" d="M617.84,464.48q8,0,11.8,3.88t3.8,10.36a18.07,18.07,0,0,1-.52,4.36,12.88,12.88,0,0,1-1.6,3.84,10.23,10.23,0,0,1-2.76,2.92,10.45,10.45,0,0,1-4.08,1.68v.16a10.65,10.65,0,0,1,4.8,1.48,10.88,10.88,0,0,1,3.28,3.08,12.87,12.87,0,0,1,1.88,4,16.84,16.84,0,0,1,.6,4.44,23,23,0,0,1-1,6.8,13.89,13.89,0,0,1-3,5.36,13.55,13.55,0,0,1-5.32,3.48,22.36,22.36,0,0,1-7.92,1.24H595.36V464.48Zm-4,22.4a4,4,0,0,0,3.52-1.72,6.88,6.88,0,0,0,1.2-4,7.2,7.2,0,0,0-1.2-4.16,4,4,0,0,0-3.52-1.76h-3.6v11.68Zm.56,24a4.89,4.89,0,0,0,3.68-1.72q1.6-1.73,1.6-5.32a7.34,7.34,0,0,0-1.6-5.12A4.86,4.86,0,0,0,614.4,497h-4.16v13.92Z"/><path class="cls-1" d="M665.76,464.48l13.92,57.12H663.84l-1.52-10H650.48l-1.52,10h-15.6L647,464.48Zm-9.44,11.68-4.08,24.24h8.32l-4.08-24.24Z"/><path class="cls-1" d="M700.88,475.2a3.29,3.29,0,0,0-3.12-1.76,3.9,3.9,0,0,0-2.68.88,5.9,5.9,0,0,0-1.52,3.12,34.24,34.24,0,0,0-.68,6q-.17,3.79-.16,9.56t.16,9.56a34.24,34.24,0,0,0,.68,6,5.9,5.9,0,0,0,1.52,3.12,3.9,3.9,0,0,0,2.68.88A3.58,3.58,0,0,0,700,512a4.33,4.33,0,0,0,1.36-2.28,20.59,20.59,0,0,0,.68-4.28q.19-2.68.2-6.76h14.4v4.24a25.75,25.75,0,0,1-1.6,9.84,15.43,15.43,0,0,1-4.24,6,14.08,14.08,0,0,1-6,3,31.81,31.81,0,0,1-7,.76A29.3,29.3,0,0,1,687.52,521a12.33,12.33,0,0,1-6.24-5.08,23.82,23.82,0,0,1-3.08-9.2,94.43,94.43,0,0,1-.84-13.64,81.08,81.08,0,0,1,1-13.84,23.5,23.5,0,0,1,3.4-9.2,13.56,13.56,0,0,1,6.32-5.08,26.28,26.28,0,0,1,9.68-1.56,25.27,25.27,0,0,1,8.56,1.28,14.37,14.37,0,0,1,5.72,3.64,14.2,14.2,0,0,1,3.2,5.68,25.8,25.8,0,0,1,1,7.48V485h-14.4v-3.2C701.84,478.59,701.52,476.37,700.88,475.2Z"/><path class="cls-1" d="M733.2,464.48V486.4h.16l11-21.92h15.84l-14.4,25L762,521.6H745l-8.72-19.92-3.12,4.8V521.6H718.32V464.48Z"/><path class="cls-1" d="M760.44,473.6a14.26,14.26,0,0,1,3.4-5.92,13.26,13.26,0,0,1,5.64-3.32,26.73,26.73,0,0,1,7.72-1q8.71,0,12.84,4.32t4.12,11.52a21.77,21.77,0,0,1-.84,6.2,13.33,13.33,0,0,1-2.92,5.16l-5.84,6.64a6.63,6.63,0,0,0-1.48,3.28,25.87,25.87,0,0,0-.36,4.56h-13V502.8a31,31,0,0,1,.72-7.4,12.63,12.63,0,0,1,2.72-5.16l4.72-5.36a8,8,0,0,0,2-3.72,17.88,17.88,0,0,0,.36-3.32,7.1,7.1,0,0,0-.88-3.76,3,3,0,0,0-2.72-1.44A3.71,3.71,0,0,0,775,473a2.79,2.79,0,0,0-1.2,1.4,11.31,11.31,0,0,0-.76,3,37.54,37.54,0,0,0-.28,5.16H759.28A30.18,30.18,0,0,1,760.44,473.6ZM783,509V521.6H769.52V509Z"/><path class="cls-1" d="M807.28,464.48h16.08L829,484.4h.16l5.6-19.92H851l-14.56,34.64V521.6H821.6V499.12Z"/><path class="cls-1" d="M847.36,479.4a24.13,24.13,0,0,1,3.44-9.2,14,14,0,0,1,6.32-5.2,28.92,28.92,0,0,1,19.2,0,14,14,0,0,1,6.32,5.2,24.3,24.3,0,0,1,3.44,9.2,90,90,0,0,1,0,27.28,24.3,24.3,0,0,1-3.44,9.2,13.26,13.26,0,0,1-6.32,5.08,31.08,31.08,0,0,1-19.2,0,13.22,13.22,0,0,1-6.32-5.08,24.13,24.13,0,0,1-3.44-9.2,90,90,0,0,1,0-27.28Zm14.48,23.2a33.31,33.31,0,0,0,.68,6,5.9,5.9,0,0,0,1.52,3.12,4.52,4.52,0,0,0,5.36,0,6,6,0,0,0,1.52-3.12,35.22,35.22,0,0,0,.68-6q.17-3.8.16-9.56t-.16-9.56a35.22,35.22,0,0,0-.68-6,6,6,0,0,0-1.52-3.12,4.52,4.52,0,0,0-5.36,0,5.9,5.9,0,0,0-1.52,3.12,33.31,33.31,0,0,0-.68,6q-.17,3.79-.16,9.56T861.84,502.6Z"/><path class="cls-1" d="M903.52,505.68c0,2.77.4,4.63,1.2,5.56a4.54,4.54,0,0,0,6.56,0c.8-.93,1.2-2.79,1.2-5.56v-41.2h14.88v37.44a33.4,33.4,0,0,1-1.28,10,15.36,15.36,0,0,1-3.72,6.4,12.78,12.78,0,0,1-6,3.28,39.58,39.58,0,0,1-16.6,0,12.72,12.72,0,0,1-6.08-3.28,15.25,15.25,0,0,1-3.72-6.4,33.4,33.4,0,0,1-1.28-10V464.48h14.88Z"/><path class="cls-1" d="M979.6,464.48,985.44,504h.16l4-39.52H1004l-9.76,57.12H977.92l-5-38.4h-.16l-5,38.4H951.52l-9.76-57.12h14.4L960.64,504h.16l5.36-39.52Z"/><path class="cls-1" d="M1003.68,479.4a24.13,24.13,0,0,1,3.44-9.2,14,14,0,0,1,6.32-5.2,28.92,28.92,0,0,1,19.2,0,14,14,0,0,1,6.32,5.2,24.13,24.13,0,0,1,3.44,9.2,90,90,0,0,1,0,27.28,24.13,24.13,0,0,1-3.44,9.2,13.26,13.26,0,0,1-6.32,5.08,31.08,31.08,0,0,1-19.2,0,13.26,13.26,0,0,1-6.32-5.08,24.13,24.13,0,0,1-3.44-9.2,90,90,0,0,1,0-27.28Zm14.48,23.2a33.31,33.31,0,0,0,.68,6,5.9,5.9,0,0,0,1.52,3.12,4.52,4.52,0,0,0,5.36,0,6,6,0,0,0,1.52-3.12,35.22,35.22,0,0,0,.68-6q.16-3.8.16-9.56t-.16-9.56a35.22,35.22,0,0,0-.68-6,6,6,0,0,0-1.52-3.12,4.52,4.52,0,0,0-5.36,0,5.9,5.9,0,0,0-1.52,3.12,33.31,33.31,0,0,0-.68,6q-.17,3.79-.16,9.56T1018.16,502.6Z"/><path class="cls-1" d="M1062.24,464.48l9.6,35.2h.16v-35.2h13.92V521.6H1069.6l-9.92-35.28h-.16V521.6H1045.6V464.48Z"/><path class="cls-1" d="M1102.32,464.48V494.4h-11.2V464.48Z"/><path class="cls-1" d="M1104,477.12V464.48h37.12v12.64h-11.2V521.6H1115V477.12Z"/><path class="cls-1" d="M356.81,539.44V551.6h-19v9.76h17.76V573H337.85V584.4h19.68v12.16H323V539.44Z"/><path class="cls-1" d="M371,539.44l6,43h.16l6-43H399l-12.31,57.12h-19.2l-12.08-57.12Z"/><path class="cls-1" d="M432.08,539.44V551.6h-19v9.76h17.76V573H413.12V584.4H432.8v12.16H398.24V539.44Z"/><path class="cls-1" d="M451.68,539.44l9.6,35.2h.16v-35.2h13.92v57.12H459l-9.92-35.28H449v35.28H435V539.44Z"/><path class="cls-1" d="M513.52,539.44l9.6,35.2h.16v-35.2H537.2v57.12H520.88L511,561.28h-.16v35.28H496.88V539.44Z"/><path class="cls-1" d="M574.88,539.44V551.6h-19v9.76h17.76V573H555.92V584.4H575.6v12.16H541V539.44Z"/><path class="cls-1" d="M611.68,539.44V551.6h-19v9.76h17.76V573H592.72V584.4H612.4v12.16H577.84V539.44Z"/><path class="cls-1" d="M636.32,539.44q6.48,0,10.08,2.36a14.63,14.63,0,0,1,5.4,6.32,26.79,26.79,0,0,1,2.2,9.12q.4,5.16.4,10.76t-.4,10.76a26.79,26.79,0,0,1-2.2,9.12,14.63,14.63,0,0,1-5.4,6.32q-3.6,2.35-10.08,2.36h-21.6V539.44Zm-3.76,46.4a8.2,8.2,0,0,0,3.44-.6,4.06,4.06,0,0,0,2-2.52,20.1,20.1,0,0,0,.88-5.44c.14-2.35.2-5.44.2-9.28s-.06-6.93-.2-9.28a20.1,20.1,0,0,0-.88-5.44,4.06,4.06,0,0,0-2-2.52,8.2,8.2,0,0,0-3.44-.6h-3v35.68Z"/><path class="cls-1" d="M668.72,552.08V539.44h37.12v12.64h-11.2v44.48H679.76V552.08Z"/><path class="cls-1" d="M705.44,554.36a24.13,24.13,0,0,1,3.44-9.2,14,14,0,0,1,6.32-5.2,28.92,28.92,0,0,1,19.2,0,14,14,0,0,1,6.32,5.2,24.13,24.13,0,0,1,3.44,9.2,90,90,0,0,1,0,27.28,24.13,24.13,0,0,1-3.44,9.2,13.26,13.26,0,0,1-6.32,5.08,31.08,31.08,0,0,1-19.2,0,13.26,13.26,0,0,1-6.32-5.08,24.13,24.13,0,0,1-3.44-9.2,90,90,0,0,1,0-27.28Zm14.48,23.2a34.24,34.24,0,0,0,.68,6,5.9,5.9,0,0,0,1.52,3.12,4.52,4.52,0,0,0,5.36,0A5.9,5.9,0,0,0,729,583.6a34.24,34.24,0,0,0,.68-6q.17-3.79.16-9.56t-.16-9.56a34.24,34.24,0,0,0-.68-6,5.9,5.9,0,0,0-1.52-3.12,4.52,4.52,0,0,0-5.36,0,5.9,5.9,0,0,0-1.52,3.12,34.24,34.24,0,0,0-.68,6q-.17,3.79-.16,9.56T719.92,577.56Z"/><path class="cls-1" d="M798.8,539.44V551.6h-19v9.76H797.6V573H779.84v23.52H765V539.44Z"/><path class="cls-1" d="M823.6,539.44a20.67,20.67,0,0,1,7.24,1.12,12.41,12.41,0,0,1,4.88,3.16,12.23,12.23,0,0,1,2.72,4.84,21.07,21.07,0,0,1,.84,6.08,16.59,16.59,0,0,1-2.32,9.28q-2.33,3.52-7.44,4.32v.16c3.57.32,6,1.57,7.36,3.76s2,5.2,2,9v7.2c0,.8,0,1.56.08,2.28a17.23,17.23,0,0,0,.24,2,5.33,5.33,0,0,0,.4,1.36c.21.32.43.63.64.92a3.21,3.21,0,0,0,1,.84v.8H825.44a10.24,10.24,0,0,1-.84-2.64,28.76,28.76,0,0,1-.4-3c-.08-1-.13-2-.16-2.92s0-1.69,0-2.28v-3.84a27.73,27.73,0,0,0-.24-4,6.31,6.31,0,0,0-.84-2.52A3.22,3.22,0,0,0,821.4,574a6.27,6.27,0,0,0-2.28-.36H815.2v22.88H800.32V539.44Zm-5.44,24.16a5.72,5.72,0,0,0,4.72-1.88,7.59,7.59,0,0,0,1.52-4.92q0-3.6-1.48-5.12t-4.84-1.52H815.2V563.6Z"/><path class="cls-1" d="M871.2,539.44l13.92,57.12H869.28l-1.52-10H855.92l-1.52,10H838.8l13.68-57.12Zm-9.44,11.68-4.08,24.24H866l-4.08-24.24Z"/><path class="cls-1" d="M905.12,539.44l6,33.84h.16l6-33.84h21.28v57.12H924.64V554h-.16l-7.92,42.56H905.84L897.92,554h-.16v42.56H883.84V539.44Z"/><path class="cls-1" d="M975.68,539.44V551.6h-19v9.76h17.76V573H956.72V584.4H976.4v12.16H941.84V539.44Z"/><path class="cls-1" d="M989.92,552.08V539.44H1027v12.64h-11.2v44.48H1001V552.08Z"/><path class="cls-1" d="M1042.16,539.44v21h9.12v-21h14.88v57.12h-14.88V573h-9.12v23.52h-14.88V539.44Z"/><path class="cls-1" d="M1103.92,539.44V551.6h-19v9.76h17.76V573H1085V584.4h19.68v12.16h-34.56V539.44Z"/><path class="cls-1" d="M1127.68,539.44l6,33.84h.16l6-33.84h21.28v57.12H1147.2V554H1147l-7.92,42.56H1128.4L1120.48,554h-.16v42.56H1106.4V539.44Z"/><path class="cls-1" d="M1178.08,580.72v15.84h-13.44V580.72Z"/></svg>