<svg id="slide2" xmlns="http://www.w3.org/2000/svg" viewBox="0 0 1500 1000"><defs><style>.cls-1{fill:#63cbe5;}</style></defs><path class="cls-1" d="M520.24,352v12.16h-19v9.76H519v11.68H501.28V397H521v12.16H486.4V352Z"/><path class="cls-1" d="M554.8,352l13.92,57.12H552.88l-1.52-10H539.52l-1.52,10H522.4L536.08,352Zm-9.44,11.68-4.08,24.24h8.32l-4.08-24.24Z"/><path class="cls-1" d="M594.16,352a20.67,20.67,0,0,1,7.24,1.12,12.41,12.41,0,0,1,4.88,3.16,12.11,12.11,0,0,1,2.72,4.84,21.07,21.07,0,0,1,.84,6.08,16.59,16.59,0,0,1-2.32,9.28q-2.31,3.53-7.44,4.32V381q5.37.48,7.36,3.76c1.34,2.19,2,5.2,2,9V401c0,.8,0,1.56.08,2.28s.14,1.37.24,2a5.33,5.33,0,0,0,.4,1.36c.22.32.43.63.64.92a3.33,3.33,0,0,0,1,.84v.8H596a10.24,10.24,0,0,1-.84-2.64c-.18-1-.32-2-.4-3s-.13-2-.16-2.92,0-1.69,0-2.28v-3.84a27.73,27.73,0,0,0-.24-4,6.31,6.31,0,0,0-.84-2.52,3.18,3.18,0,0,0-1.52-1.28,6.27,6.27,0,0,0-2.28-.36h-3.92v22.88H570.88V352Zm-5.44,24.16a5.71,5.71,0,0,0,4.72-1.88,7.53,7.53,0,0,0,1.52-4.92q0-3.6-1.48-5.12c-1-1-2.6-1.52-4.84-1.52h-2.88v13.44Z"/><path class="cls-1" d="M629,352v45h18.32v12.16h-33.2V352Z"/><path class="cls-1" d="M636.56,352h16.08l5.6,19.92h.16L664,352h16.32l-14.56,34.64v22.48H650.88V386.66Z"/><path class="cls-1" d="M720.08,352q8,0,11.8,3.88t3.8,10.36a18.07,18.07,0,0,1-.52,4.36,13.14,13.14,0,0,1-1.6,3.84,10.23,10.23,0,0,1-2.76,2.92,10.45,10.45,0,0,1-4.08,1.68v.16a10.65,10.65,0,0,1,4.8,1.48,11,11,0,0,1,3.28,3.08,13.09,13.09,0,0,1,1.88,4,16.84,16.84,0,0,1,.6,4.44,23,23,0,0,1-1,6.8,13.89,13.89,0,0,1-3,5.36A13.55,13.55,0,0,1,728,407.9a22.4,22.4,0,0,1-7.92,1.24H697.6V352Zm-4,22.4a4,4,0,0,0,3.52-1.72,6.88,6.88,0,0,0,1.2-4,7.2,7.2,0,0,0-1.2-4.16,4,4,0,0,0-3.52-1.76h-3.6v11.68Zm.56,24a4.89,4.89,0,0,0,3.68-1.72q1.6-1.72,1.6-5.32a7.34,7.34,0,0,0-1.6-5.12,4.86,4.86,0,0,0-3.68-1.76h-4.16v13.92Z"/><path class="cls-1" d="M754.64,352v57.12H739.76V352Z"/><path class="cls-1" d="M781.6,352a20.67,20.67,0,0,1,7.24,1.12,12.41,12.41,0,0,1,4.88,3.16,12.23,12.23,0,0,1,2.72,4.84,21.07,21.07,0,0,1,.84,6.08A16.59,16.59,0,0,1,795,376.5q-2.33,3.53-7.44,4.32V381c3.57.32,6,1.57,7.36,3.76s2,5.2,2,9V401c0,.8,0,1.56.08,2.28a17.23,17.23,0,0,0,.24,2,5.33,5.33,0,0,0,.4,1.36c.21.32.43.63.64.92a3.21,3.21,0,0,0,1,.84v.8H783.44a10.24,10.24,0,0,1-.84-2.64,28.76,28.76,0,0,1-.4-3c-.08-1-.13-2-.16-2.92s0-1.69,0-2.28v-3.84a27.73,27.73,0,0,0-.24-4,6.31,6.31,0,0,0-.84-2.52,3.22,3.22,0,0,0-1.52-1.28,6.27,6.27,0,0,0-2.28-.36H773.2v22.88H758.32V352Zm-5.44,24.16a5.72,5.72,0,0,0,4.72-1.88,7.59,7.59,0,0,0,1.52-4.92q0-3.6-1.48-5.12t-4.84-1.52H773.2v13.44Z"/><path class="cls-1" d="M823.12,352q6.48,0,10.08,2.36a14.63,14.63,0,0,1,5.4,6.32,27,27,0,0,1,2.2,9.12q.41,5.16.4,10.76t-.4,10.76a27,27,0,0,1-2.2,9.12,14.63,14.63,0,0,1-5.4,6.32q-3.6,2.36-10.08,2.36h-21.6V352Zm-3.76,46.4a8.2,8.2,0,0,0,3.44-.6,4.09,4.09,0,0,0,2-2.52,20.92,20.92,0,0,0,.88-5.44q.2-3.53.2-9.28t-.2-9.28a20.92,20.92,0,0,0-.88-5.44,4.09,4.09,0,0,0-2-2.52,8.2,8.2,0,0,0-3.44-.6h-3v35.68Z"/><path class="cls-1" d="M867.36,367.14a8.6,8.6,0,0,0-1-4.36,3.45,3.45,0,0,0-3.2-1.8,4,4,0,0,0-3.52,1.56,5.8,5.8,0,0,0-1.12,3.48,5.7,5.7,0,0,0,1.8,4.44,16.73,16.73,0,0,0,4.52,2.84q2.72,1.2,5.84,2.44a26.27,26.27,0,0,1,5.84,3.24,16.08,16.08,0,0,1,4.52,5.24,17.3,17.3,0,0,1,1.8,8.44q0,9.12-5.2,13.24t-15,4.12a39.26,39.26,0,0,1-8.2-.76,14.84,14.84,0,0,1-6-2.64,11.81,11.81,0,0,1-3.72-4.92,19.48,19.48,0,0,1-1.28-7.52v-2h14.4v1.36q0,3.68,1.36,5.16a4.54,4.54,0,0,0,3.52,1.48,4.24,4.24,0,0,0,3.56-1.6,6.25,6.25,0,0,0,1.24-3.92,5.82,5.82,0,0,0-1.72-4.44,15.21,15.21,0,0,0-4.32-2.8q-2.6-1.16-5.64-2.36a24.61,24.61,0,0,1-5.64-3.12,15.34,15.34,0,0,1-4.32-5,16.81,16.81,0,0,1-1.72-8.16q0-8.72,4.64-13.28t14.08-4.56q9.75,0,14.12,4.2t4.36,13.4H867.36Z"/><path class="cls-1" d="M941,378.1v31H930.88l-.32-5h-.16a7.92,7.92,0,0,1-2,3,9,9,0,0,1-3,1.8,16.32,16.32,0,0,1-3.52.84,30.06,30.06,0,0,1-3.8.24q-5.69,0-9-1.88a11.8,11.8,0,0,1-5-5.64,28.28,28.28,0,0,1-2.12-9.28q-.45-5.52-.44-12.64a85.4,85.4,0,0,1,.84-12.72,24,24,0,0,1,3.2-9.28,15.07,15.07,0,0,1,6.52-5.72,25.17,25.17,0,0,1,10.72-2,24.27,24.27,0,0,1,7.24,1,14.16,14.16,0,0,1,5.72,3.36,15.89,15.89,0,0,1,3.76,6A25.51,25.51,0,0,1,941,370.1h-14.4a20.11,20.11,0,0,0-.8-6.64,3.31,3.31,0,0,0-3.44-2.48,4.46,4.46,0,0,0-2.92.88,5.52,5.52,0,0,0-1.6,3.12,33.31,33.31,0,0,0-.68,6q-.17,3.8-.16,9.56t.16,9.56a33.31,33.31,0,0,0,.68,6,5.83,5.83,0,0,0,1.52,3.12,3.88,3.88,0,0,0,2.68.88,4.54,4.54,0,0,0,2.12-.48,3.82,3.82,0,0,0,1.56-1.8,13.53,13.53,0,0,0,1-3.68,41.38,41.38,0,0,0,.36-6h-5.28V378.1Z"/><path class="cls-1" d="M978.16,352v12.16h-19v9.76H977v11.68H959.2V397h19.68v12.16H944.32V352Z"/><path class="cls-1" d="M980.8,364.66V352h37.12v12.64h-11.2v44.48H991.84V364.66Z"/><path class="cls-1" d="M357.2,427l13.92,57.12H355.28l-1.52-10H341.92l-1.52,10H324.8L338.48,427Zm-9.44,11.68-4.08,24.24H352l-4.08-24.24Z"/><path class="cls-1" d="M388.16,427v45h18.32V484.1h-33.2V427Z"/><path class="cls-1" d="M424,427v45h18.32V484.1h-33.2V427Z"/><path class="cls-1" d="M471.76,445.54H461v-9.28a34.66,34.66,0,0,0,5.92-.44,13,13,0,0,0,4.24-1.44,8.16,8.16,0,0,0,2.88-2.72,15.68,15.68,0,0,0,1.84-4.2h10.72V484.1H471.76Z"/><path class="cls-1" d="M491.52,438.78a14.17,14.17,0,0,1,2.72-6.08,12.66,12.66,0,0,1,5.6-3.88,27.15,27.15,0,0,1,9.44-1.36,28.86,28.86,0,0,1,9.12,1.2A13.7,13.7,0,0,1,524,432a11.24,11.24,0,0,1,2.8,4.92,22.72,22.72,0,0,1,.76,6,21.88,21.88,0,0,1-1.92,9.68,26.6,26.6,0,0,1-5.12,7.12l-8.8,8.56c-.64.64-1.35,1.36-2.12,2.16A6.42,6.42,0,0,0,508,472.9h19.52v11.2H490.24a35.1,35.1,0,0,1,1.8-11.32,28,28,0,0,1,6.68-10.36l9.92-10.08a15,15,0,0,0,3.08-4.12,12.32,12.32,0,0,0,.92-5.16q0-3.6-1-5a3.33,3.33,0,0,0-2.8-1.36,4.1,4.1,0,0,0-1.52.28A3.14,3.14,0,0,0,506,438.1a6.25,6.25,0,0,0-1,2.28,17,17,0,0,0-.36,3.88v2.4H490.72A43.63,43.63,0,0,1,491.52,438.78Z"/><path class="cls-1" d="M573.12,427,587,484.1H571.2l-1.52-10H557.84l-1.52,10h-15.6L554.4,427Zm-9.44,11.68L559.6,462.9h8.32l-4.08-24.24Z"/><path class="cls-1" d="M612,427a20.67,20.67,0,0,1,7.24,1.12,12.41,12.41,0,0,1,4.88,3.16,12.23,12.23,0,0,1,2.72,4.84,21.07,21.07,0,0,1,.84,6.08,16.59,16.59,0,0,1-2.32,9.28q-2.33,3.53-7.44,4.32v.16c3.57.32,6,1.57,7.36,3.76s2,5.2,2,9v7.2c0,.8,0,1.56.08,2.28a17.23,17.23,0,0,0,.24,2,5.33,5.33,0,0,0,.4,1.36c.21.32.43.63.64.92a3.21,3.21,0,0,0,1,.84v.8H613.84a10.24,10.24,0,0,1-.84-2.64,28.76,28.76,0,0,1-.4-3c-.08-1-.13-2-.16-2.92s0-1.69,0-2.28v-3.84a27.73,27.73,0,0,0-.24-4,6.31,6.31,0,0,0-.84-2.52,3.22,3.22,0,0,0-1.52-1.28,6.27,6.27,0,0,0-2.28-.36H603.6V484.1H588.72V427Zm-5.44,24.16a5.72,5.72,0,0,0,4.72-1.88,7.59,7.59,0,0,0,1.52-4.92q0-3.6-1.48-5.12t-4.84-1.52H603.6v13.44Z"/><path class="cls-1" d="M629.36,439.62V427h37.12v12.64h-11.2V484.1H640.4V439.62Z"/><path class="cls-1" d="M706.16,427,712,466.5h.16l4-39.52h14.4L720.8,484.1H704.48l-5-38.4h-.16l-5,38.4H678.08L668.32,427h14.4l4.48,39.52h.16L692.72,427Z"/><path class="cls-1" d="M731,441.9a24.13,24.13,0,0,1,3.44-9.2,14,14,0,0,1,6.32-5.2,28.92,28.92,0,0,1,19.2,0,14,14,0,0,1,6.32,5.2,24.13,24.13,0,0,1,3.44,9.2,90,90,0,0,1,0,27.28,24.13,24.13,0,0,1-3.44,9.2,13.26,13.26,0,0,1-6.32,5.08,31.08,31.08,0,0,1-19.2,0,13.26,13.26,0,0,1-6.32-5.08,24.13,24.13,0,0,1-3.44-9.2,90,90,0,0,1,0-27.28Zm14.48,23.2a33.31,33.31,0,0,0,.68,6,5.9,5.9,0,0,0,1.52,3.12,4.52,4.52,0,0,0,5.36,0,5.9,5.9,0,0,0,1.52-3.12,34.24,34.24,0,0,0,.68-6q.16-3.8.16-9.56t-.16-9.56a34.24,34.24,0,0,0-.68-6,5.9,5.9,0,0,0-1.52-3.12,4.52,4.52,0,0,0-5.36,0,5.9,5.9,0,0,0-1.52,3.12,33.31,33.31,0,0,0-.68,6q-.16,3.79-.16,9.56T745.52,465.1Z"/><path class="cls-1" d="M797,427a20.67,20.67,0,0,1,7.24,1.12,12.41,12.41,0,0,1,4.88,3.16,12.23,12.23,0,0,1,2.72,4.84,21.07,21.07,0,0,1,.84,6.08,16.59,16.59,0,0,1-2.32,9.28q-2.32,3.53-7.44,4.32v.16c3.57.32,6,1.57,7.36,3.76s2,5.2,2,9v7.2c0,.8,0,1.56.08,2.28a17.23,17.23,0,0,0,.24,2,5.33,5.33,0,0,0,.4,1.36c.21.32.43.63.64.92a3.21,3.21,0,0,0,1,.84v.8H798.88a10.24,10.24,0,0,1-.84-2.64,28.76,28.76,0,0,1-.4-3c-.08-1-.13-2-.16-2.92s0-1.69,0-2.28v-3.84a27.73,27.73,0,0,0-.24-4,6.31,6.31,0,0,0-.84-2.52,3.22,3.22,0,0,0-1.52-1.28,6.27,6.27,0,0,0-2.28-.36h-3.92V484.1H773.76V427Zm-5.44,24.16a5.72,5.72,0,0,0,4.72-1.88,7.59,7.59,0,0,0,1.52-4.92q0-3.6-1.48-5.12t-4.84-1.52h-2.88v13.44Z"/><path class="cls-1" d="M832.08,427V448.9h.16l11-21.92h15.84l-14.4,25,16.16,32.16h-17l-8.72-19.92-3.12,4.8V484.1H817.2V427Z"/><path class="cls-1" d="M883.28,442.1a8.6,8.6,0,0,0-1-4.36,3.45,3.45,0,0,0-3.2-1.8,4,4,0,0,0-3.52,1.56A5.8,5.8,0,0,0,874.4,441a5.7,5.7,0,0,0,1.8,4.44,16.57,16.57,0,0,0,4.52,2.84q2.71,1.2,5.84,2.44a26.5,26.5,0,0,1,5.84,3.24,16.08,16.08,0,0,1,4.52,5.24,17.3,17.3,0,0,1,1.8,8.44q0,9.12-5.2,13.24t-15,4.12a39.26,39.26,0,0,1-8.2-.76,14.72,14.72,0,0,1-6-2.64,11.81,11.81,0,0,1-3.72-4.92,19.3,19.3,0,0,1-1.28-7.52v-2h14.4v1.36q0,3.67,1.36,5.16a4.54,4.54,0,0,0,3.52,1.48,4.24,4.24,0,0,0,3.56-1.6,6.25,6.25,0,0,0,1.24-3.92,5.86,5.86,0,0,0-1.72-4.44,15.21,15.21,0,0,0-4.32-2.8q-2.61-1.15-5.64-2.36A24.61,24.61,0,0,1,866,456.9a15.22,15.22,0,0,1-4.32-5A16.81,16.81,0,0,1,860,443.7q0-8.71,4.64-13.28t14.08-4.56q9.75,0,14.12,4.2t4.36,13.4H883.28Z"/><path class="cls-1" d="M952.4,427v12.16h-19v9.76H951.2v11.68H933.44V484.1H918.56V427Z"/><path class="cls-1" d="M954.88,441.9a24,24,0,0,1,3.44-9.2,14,14,0,0,1,6.31-5.2,28.92,28.92,0,0,1,19.2,0,14,14,0,0,1,6.33,5.2,24.3,24.3,0,0,1,3.43,9.2,90,90,0,0,1,0,27.28,24.3,24.3,0,0,1-3.43,9.2,13.29,13.29,0,0,1-6.33,5.08,31.08,31.08,0,0,1-19.2,0,13.24,13.24,0,0,1-6.31-5.08,24,24,0,0,1-3.44-9.2,89.12,89.12,0,0,1,0-27.28Zm14.48,23.2a33.31,33.31,0,0,0,.68,6,5.9,5.9,0,0,0,1.51,3.12,4.54,4.54,0,0,0,5.37,0,6,6,0,0,0,1.52-3.12,35.22,35.22,0,0,0,.68-6c.1-2.53.16-5.72.16-9.56s-.06-7-.16-9.56a35.22,35.22,0,0,0-.68-6,6,6,0,0,0-1.52-3.12,4.54,4.54,0,0,0-5.37,0,5.9,5.9,0,0,0-1.51,3.12,33.31,33.31,0,0,0-.68,6q-.17,3.79-.16,9.56T969.36,465.1Z"/><path class="cls-1" d="M1020.56,427a20.71,20.71,0,0,1,7.24,1.12,12.48,12.48,0,0,1,4.88,3.16,12.23,12.23,0,0,1,2.72,4.84,21.07,21.07,0,0,1,.84,6.08,16.68,16.68,0,0,1-2.32,9.28q-2.33,3.53-7.44,4.32v.16q5.36.48,7.36,3.76t2,9v7.2c0,.8,0,1.56.08,2.28a17.23,17.23,0,0,0,.24,2,5,5,0,0,0,.4,1.36c.21.32.42.63.64.92a3.21,3.21,0,0,0,1,.84v.8H1022.4a9.52,9.52,0,0,1-.84-2.64,28.76,28.76,0,0,1-.4-3c-.08-1-.14-2-.16-2.92s0-1.69,0-2.28v-3.84a27.73,27.73,0,0,0-.24-4,6.31,6.31,0,0,0-.84-2.52,3.22,3.22,0,0,0-1.52-1.28,6.34,6.34,0,0,0-2.28-.36h-3.92V484.1H997.28V427Zm-5.44,24.16a5.73,5.73,0,0,0,4.72-1.88,7.59,7.59,0,0,0,1.52-4.92c0-2.4-.5-4.11-1.48-5.12s-2.6-1.52-4.84-1.52h-2.88v13.44Z"/><path class="cls-1" d="M1059.11,480.7q-3.91-3.48-3.92-11.08v-2.16h14.4V469c0,2.4.46,4,1.36,5a4.86,4.86,0,0,0,3.6,1.36,4.33,4.33,0,0,0,3.56-1.52,6.19,6.19,0,0,0-.48-8,15.28,15.28,0,0,0-4.32-2.76c-1.73-.77-3.61-1.55-5.64-2.32a24.74,24.74,0,0,1-5.64-3,15.2,15.2,0,0,1-4.32-4.92,16.09,16.09,0,0,1-1.72-7.92q0-15,14.64-17.36v-4.64H1078v4.64q8,.8,11.6,4.84t3.6,12.28h-13.92v-1.2a8.18,8.18,0,0,0-1-4.2,3.44,3.44,0,0,0-3.2-1.8,4,4,0,0,0-3.52,1.56,5.75,5.75,0,0,0-1.12,3.4,5.58,5.58,0,0,0,1.8,4.4,16.35,16.35,0,0,0,4.52,2.76c1.82.77,3.76,1.52,5.84,2.24a23.24,23.24,0,0,1,5.84,3,15.52,15.52,0,0,1,4.52,5,16.59,16.59,0,0,1,1.8,8.32q0,8.16-4.24,12.08T1078,485v7.2h-7.36V485Q1063,484.18,1059.11,480.7Z"/><path class="cls-1" d="M1131.91,428.58v11.2h-21.52l-.64,9.52a16.6,16.6,0,0,1,4.68-3,14.49,14.49,0,0,1,5.8-1.12q7,0,10.56,4.4t3.6,13.6a44.69,44.69,0,0,1-.92,9.72,16.59,16.59,0,0,1-3.08,6.84,12.49,12.49,0,0,1-5.72,4,26.43,26.43,0,0,1-8.84,1.28q-9.84,0-14.2-4.16T1097.27,469v-1.84h13.92v1.92q0,4,1.08,5.44a3.54,3.54,0,0,0,3,1.44,4.35,4.35,0,0,0,1.88-.36,3,3,0,0,0,1.32-1.64,12.47,12.47,0,0,0,.8-3.68q.24-2.4.24-6.48,0-4.8-1.08-6.68a3.45,3.45,0,0,0-3.16-1.88,4,4,0,0,0-3,1.12,5.09,5.09,0,0,0-1.12,3.68h-13.44l1.28-31.44Z"/><path class="cls-1" d="M1151.43,474.82a3.55,3.55,0,0,0,3,1.12,3.78,3.78,0,0,0,2.84-1.32,5.58,5.58,0,0,0,1.24-4v-9h-.16a6.94,6.94,0,0,1-3.56,3.2,14.06,14.06,0,0,1-6,1.2,17.19,17.19,0,0,1-5.52-.84,10.14,10.14,0,0,1-4.28-2.8,13.07,13.07,0,0,1-2.76-5.28,30.27,30.27,0,0,1-1-8.28,33.93,33.93,0,0,1,1.24-9.8,16.8,16.8,0,0,1,3.68-6.64,14.12,14.12,0,0,1,6-3.76,25.91,25.91,0,0,1,8.08-1.16,28.59,28.59,0,0,1,8.56,1.16,13.09,13.09,0,0,1,6.12,4,18.29,18.29,0,0,1,3.68,7.44,45.61,45.61,0,0,1,1.24,11.6v6.24a87.53,87.53,0,0,1-.68,11.64,22.2,22.2,0,0,1-2.76,8.56,12.79,12.79,0,0,1-5.92,5.2,25.08,25.08,0,0,1-10.16,1.72,29.91,29.91,0,0,1-9-1.12,13.16,13.16,0,0,1-5.44-3.12,10.94,10.94,0,0,1-2.72-4.6,19.66,19.66,0,0,1-.76-5.48h13.92A7,7,0,0,0,1151.43,474.82Zm-.36-21.44a3.3,3.3,0,0,0,3.24,1.92,3.34,3.34,0,0,0,3.12-1.92q1-1.92,1-7.36c0-3.63-.3-6.08-.92-7.36a3.29,3.29,0,0,0-3.24-1.92,3.36,3.36,0,0,0-3.12,1.92q-1,1.92-1,7.36T1151.07,453.38Z"/><path class="cls-1" d="M313.12,556.54a56.77,56.77,0,0,1-3-18.68,57.84,57.84,0,0,1,3-18.8,79.31,79.31,0,0,1,8.32-17.12h11.68a63.75,63.75,0,0,0-7.36,17.4,75.94,75.94,0,0,0-2.24,18.52,74.49,74.49,0,0,0,2.24,18.4,64.1,64.1,0,0,0,7.36,17.28H321.44A80.29,80.29,0,0,1,313.12,556.54Z"/><path class="cls-1" d="M329.6,514.58V501.94h37.12v12.64h-11.2v44.48H340.64V514.58Z"/><path class="cls-1" d="M385,501.94v21h9.12v-21H409v57.12H394.08V535.54H385v23.52H370.08V501.94Z"/><path class="cls-1" d="M443.76,501.94l13.92,57.12H441.84l-1.52-10H428.48l-1.52,10h-15.6L425,501.94Zm-9.44,11.68-4.08,24.24h8.32l-4.08-24.24Z"/><path class="cls-1" d="M449.84,514.58V501.94H487v12.64h-11.2v44.48H460.88V514.58Z"/><path class="cls-1" d="M501.28,501.94v29.92h-11.2V501.94Z"/><path class="cls-1" d="M527.84,517.06a8.6,8.6,0,0,0-1-4.36,3.44,3.44,0,0,0-3.2-1.8,4,4,0,0,0-3.52,1.56,5.8,5.8,0,0,0-1.12,3.48,5.7,5.7,0,0,0,1.8,4.44,16.73,16.73,0,0,0,4.52,2.84q2.72,1.2,5.84,2.44A26.27,26.27,0,0,1,537,528.9a16.08,16.08,0,0,1,4.52,5.24,17.3,17.3,0,0,1,1.8,8.44q0,9.12-5.2,13.24t-15,4.12a39.33,39.33,0,0,1-8.2-.76,14.84,14.84,0,0,1-6-2.64,11.81,11.81,0,0,1-3.72-4.92,19.48,19.48,0,0,1-1.28-7.52v-2h14.4v1.36q0,3.67,1.36,5.16a4.56,4.56,0,0,0,3.52,1.48,4.23,4.23,0,0,0,3.56-1.6,6.19,6.19,0,0,0,1.24-3.92,5.82,5.82,0,0,0-1.72-4.44,15.21,15.21,0,0,0-4.32-2.8q-2.6-1.15-5.64-2.36a24.61,24.61,0,0,1-5.64-3.12,15.45,15.45,0,0,1-4.32-5,16.81,16.81,0,0,1-1.72-8.16q0-8.71,4.64-13.28t14.08-4.56q9.76,0,14.12,4.2t4.36,13.4H527.84Z"/><path class="cls-1" d="M596.88,501.94V514.1h-19v9.76h17.76v11.68H577.92v23.52H563V501.94Z"/><path class="cls-1" d="M612.72,501.94v57.12H597.84V501.94Z"/><path class="cls-1" d="M627.2,501.94l6,43h.16l6-43H655.2l-12.32,57.12h-19.2L611.6,501.94Z"/><path class="cls-1" d="M688.32,501.94V514.1h-19v9.76h17.76v11.68H669.36V546.9H689v12.16H654.48V501.94Z"/><path class="cls-1" d="M731.84,501.94q8,0,11.8,3.88t3.8,10.36a18.58,18.58,0,0,1-.52,4.36,13.14,13.14,0,0,1-1.6,3.84,10.23,10.23,0,0,1-2.76,2.92,10.45,10.45,0,0,1-4.08,1.68v.16a10.73,10.73,0,0,1,4.8,1.48,11.12,11.12,0,0,1,3.28,3.08,13.09,13.09,0,0,1,1.88,4,16.84,16.84,0,0,1,.6,4.44,23,23,0,0,1-1,6.8,13.89,13.89,0,0,1-3,5.36,13.62,13.62,0,0,1-5.32,3.48,22.4,22.4,0,0,1-7.92,1.24H709.36V501.94Zm-4,22.4a4,4,0,0,0,3.52-1.72,6.88,6.88,0,0,0,1.2-4,7.2,7.2,0,0,0-1.2-4.16,4,4,0,0,0-3.52-1.76h-3.6v11.68Zm.56,24a4.9,4.9,0,0,0,3.68-1.72c1.06-1.15,1.6-2.92,1.6-5.32a7.39,7.39,0,0,0-1.6-5.12,4.88,4.88,0,0,0-3.68-1.76h-4.16v13.92Z"/><path class="cls-1" d="M765.92,543.14c0,2.77.4,4.63,1.2,5.56a4.53,4.53,0,0,0,6.55,0c.81-.93,1.21-2.79,1.21-5.56v-41.2h14.87v37.44a33.43,33.43,0,0,1-1.27,10,15.37,15.37,0,0,1-3.73,6.4,12.68,12.68,0,0,1-6,3.28,39.53,39.53,0,0,1-16.59,0,12.72,12.72,0,0,1-6.08-3.28,15.25,15.25,0,0,1-3.72-6.4,33.08,33.08,0,0,1-1.28-10V501.94h14.88Z"/><path class="cls-1" d="M814.8,512.66a3.29,3.29,0,0,0-3.12-1.76,3.88,3.88,0,0,0-2.68.88,5.83,5.83,0,0,0-1.52,3.12,33.31,33.31,0,0,0-.68,6q-.16,3.79-.16,9.56t.16,9.56a33.31,33.31,0,0,0,.68,6,5.83,5.83,0,0,0,1.52,3.12,3.88,3.88,0,0,0,2.68.88,3.6,3.6,0,0,0,2.24-.68,4.39,4.39,0,0,0,1.36-2.28,21.29,21.29,0,0,0,.68-4.28q.19-2.68.2-6.76h14.4v4.24a26,26,0,0,1-1.6,9.84,15.43,15.43,0,0,1-4.24,6,14.14,14.14,0,0,1-6,3,31.81,31.81,0,0,1-7,.76,29.26,29.26,0,0,1-10.24-1.52,12.33,12.33,0,0,1-6.24-5.08,23.65,23.65,0,0,1-3.08-9.2,94.43,94.43,0,0,1-.84-13.64,81.08,81.08,0,0,1,1-13.84,23.34,23.34,0,0,1,3.4-9.2,13.51,13.51,0,0,1,6.32-5.08,26.28,26.28,0,0,1,9.68-1.56,25.27,25.27,0,0,1,8.56,1.28,13.68,13.68,0,0,1,8.92,9.32,26.14,26.14,0,0,1,1,7.48v3.6h-14.4v-3.2C815.76,516.05,815.44,513.83,814.8,512.66Z"/><path class="cls-1" d="M847.11,501.94v21.92h.16l11-21.92h15.84l-14.4,25,16.16,32.16H859l-8.72-19.92-3.12,4.8v15.12H832.23V501.94Z"/><path class="cls-1" d="M896.39,517.06a8.5,8.5,0,0,0-1-4.36,3.44,3.44,0,0,0-3.2-1.8,4,4,0,0,0-3.52,1.56,5.87,5.87,0,0,0-1.12,3.48,5.73,5.73,0,0,0,1.8,4.44,16.73,16.73,0,0,0,4.52,2.84c1.82.8,3.76,1.61,5.84,2.44a26.27,26.27,0,0,1,5.84,3.24,16.1,16.1,0,0,1,4.53,5.24,17.41,17.41,0,0,1,1.79,8.44q0,9.12-5.2,13.24t-15,4.12a39.39,39.39,0,0,1-8.2-.76,14.84,14.84,0,0,1-6-2.64,12,12,0,0,1-3.72-4.92,19.48,19.48,0,0,1-1.28-7.52v-2h14.4v1.36c0,2.45.46,4.17,1.36,5.16a4.56,4.56,0,0,0,3.52,1.48,4.21,4.21,0,0,0,3.56-1.6,6.19,6.19,0,0,0,1.24-3.92,5.82,5.82,0,0,0-1.72-4.44,14.93,14.93,0,0,0-4.32-2.8q-2.59-1.15-5.64-2.36a25,25,0,0,1-5.64-3.12,15.45,15.45,0,0,1-4.32-5,16.93,16.93,0,0,1-1.71-8.16q0-8.71,4.63-13.28t14.08-4.56q9.76,0,14.13,4.2t4.35,13.4H896.39Z"/><path class="cls-1" d="M956.71,501.94l13.92,57.12H954.79l-1.52-10H941.43l-1.52,10h-15.6L938,501.94Zm-9.44,11.68-4.08,24.24h8.32l-4.08-24.24Z"/><path class="cls-1" d="M1009.35,501.94a18.24,18.24,0,0,1,7.36,1.36,14.27,14.27,0,0,1,5.16,3.72,15,15,0,0,1,3,5.56,24.09,24.09,0,0,1,1,7q0,8.88-4.76,13.32t-14,4.44h-5.2v21.76H987V501.94Zm-4.64,24.64a5.4,5.4,0,0,0,4.28-1.68q1.49-1.68,1.48-5.28,0-7-5.76-7h-2.8v13.92Z"/><path class="cls-1" d="M1051.51,501.94a20.67,20.67,0,0,1,7.24,1.12,12.41,12.41,0,0,1,4.88,3.16,12.23,12.23,0,0,1,2.72,4.84,21.07,21.07,0,0,1,.84,6.08,16.59,16.59,0,0,1-2.32,9.28q-2.32,3.52-7.44,4.32v.16c3.57.32,6,1.57,7.36,3.76s2,5.2,2,9v7.2c0,.8,0,1.56.08,2.28a17.23,17.23,0,0,0,.24,2,5.33,5.33,0,0,0,.4,1.36c.21.32.43.63.64.92a3.21,3.21,0,0,0,1,.84v.8h-15.84a10.24,10.24,0,0,1-.84-2.64,28.76,28.76,0,0,1-.4-3c-.08-1-.13-2-.16-2.92s0-1.69,0-2.28v-3.84a27.73,27.73,0,0,0-.24-4,6.31,6.31,0,0,0-.84-2.52,3.22,3.22,0,0,0-1.52-1.28,6.27,6.27,0,0,0-2.28-.36h-3.92v22.88h-14.88V501.94Zm-5.44,24.16a5.72,5.72,0,0,0,4.72-1.88,7.59,7.59,0,0,0,1.52-4.92q0-3.6-1.48-5.12t-4.84-1.52h-2.88V526.1Z"/><path class="cls-1" d="M1086.55,501.94v57.12h-14.88V501.94Z"/><path class="cls-1" d="M1106.87,501.94l9.6,35.2h.16v-35.2h13.92v57.12h-16.32l-9.92-35.28h-.16v35.28h-13.92V501.94Z"/><path class="cls-1" d="M1133.35,514.58V501.94h37.12v12.64h-11.2v44.48h-14.88V514.58Z"/><path class="cls-1" d="M1188.07,519.06a57.84,57.84,0,0,1,3,18.8,56.77,56.77,0,0,1-3,18.68,80.29,80.29,0,0,1-8.32,17h-11.44a68.71,68.71,0,0,0,7.12-17.28,74.49,74.49,0,0,0,2.24-18.4,75.94,75.94,0,0,0-2.24-18.52,68.28,68.28,0,0,0-7.12-17.4h11.44A79.31,79.31,0,0,1,1188.07,519.06Z"/><path class="cls-1" d="M480.72,634l-2.48-3.36c-1.06.64-2.1,1.23-3.12,1.76a19.51,19.51,0,0,1-3.16,1.32,25.31,25.31,0,0,1-3.48.84,25.62,25.62,0,0,1-10.84-.6,15.5,15.5,0,0,1-5.56-2.88,14,14,0,0,1-3.8-5,16.65,16.65,0,0,1-1.4-7.08,17.64,17.64,0,0,1,2.6-9.32,20.55,20.55,0,0,1,8.12-7.24,43.34,43.34,0,0,1-3.8-6.28,15,15,0,0,1-1.64-6.68,12.49,12.49,0,0,1,1.16-5.4,12.29,12.29,0,0,1,3.28-4.2,15.35,15.35,0,0,1,5.08-2.72,21.51,21.51,0,0,1,6.64-1,22.12,22.12,0,0,1,6.76,1,15.16,15.16,0,0,1,5.12,2.72,12,12,0,0,1,3.28,4.2,12.34,12.34,0,0,1,1.16,5.4,13.65,13.65,0,0,1-2.56,7.88,24.9,24.9,0,0,1-7.36,6.76l6.48,8.72a11.23,11.23,0,0,0,1.32-3.16,20.68,20.68,0,0,0,.6-3.56H495.6a33.8,33.8,0,0,1-1.76,9.28,19.52,19.52,0,0,1-5,7.84L496.56,634Zm-19-19.4a6,6,0,0,0-.88,2.84,6.47,6.47,0,0,0,.52,2.56,6.86,6.86,0,0,0,1.4,2.08,6.46,6.46,0,0,0,2,1.36,5.55,5.55,0,0,0,2.28.48,6.76,6.76,0,0,0,2.68-.6,9.26,9.26,0,0,0,2.28-1.32l-7.6-10.32A10,10,0,0,0,461.68,614.62ZM465,591.46a34.31,34.31,0,0,0,2.88,4.16,20.91,20.91,0,0,0,3.68-4.08,5.78,5.78,0,0,0,1-3,3.77,3.77,0,0,0-1.2-2.88,4.69,4.69,0,0,0-6.08,0,3.77,3.77,0,0,0-1.2,2.88A6.2,6.2,0,0,0,465,591.46Z"/><path class="cls-1" d="M536.88,592a8.6,8.6,0,0,0-1-4.36,3.44,3.44,0,0,0-3.2-1.8,4,4,0,0,0-3.52,1.56A5.87,5.87,0,0,0,528,590.9a5.7,5.7,0,0,0,1.8,4.44,16.73,16.73,0,0,0,4.52,2.84q2.71,1.2,5.84,2.44a26.27,26.27,0,0,1,5.84,3.24,16.08,16.08,0,0,1,4.52,5.24,17.3,17.3,0,0,1,1.8,8.44q0,9.12-5.2,13.24t-15,4.12a39.33,39.33,0,0,1-8.2-.76,14.84,14.84,0,0,1-6-2.64,11.81,11.81,0,0,1-3.72-4.92,19.48,19.48,0,0,1-1.28-7.52v-2h14.4v1.36q0,3.68,1.36,5.16a4.56,4.56,0,0,0,3.52,1.48,4.23,4.23,0,0,0,3.56-1.6,6.19,6.19,0,0,0,1.24-3.92,5.82,5.82,0,0,0-1.72-4.44,15.21,15.21,0,0,0-4.32-2.8q-2.59-1.15-5.64-2.36a24.82,24.82,0,0,1-5.64-3.12,15.45,15.45,0,0,1-4.32-5,16.81,16.81,0,0,1-1.72-8.16q0-8.72,4.64-13.28t14.08-4.56q9.76,0,14.12,4.2t4.36,13.4H536.88Z"/><path class="cls-1" d="M569.76,576.9v21h9.12v-21h14.88V634H578.88V610.5h-9.12V634H554.88V576.9Z"/><path class="cls-1" d="M612.8,576.9V634H597.92V576.9Z"/><path class="cls-1" d="M639,576.9a18.24,18.24,0,0,1,7.36,1.36,14.27,14.27,0,0,1,5.16,3.72,15,15,0,0,1,3,5.56,24.09,24.09,0,0,1,1,7q0,8.88-4.76,13.32t-14,4.44h-5.2V634H616.72V576.9Zm-4.64,24.64a5.4,5.4,0,0,0,4.28-1.68q1.49-1.68,1.48-5.28,0-7-5.76-7h-2.8v13.92Z"/><path class="cls-1" d="M680.08,576.9a18.24,18.24,0,0,1,7.36,1.36A14.27,14.27,0,0,1,692.6,582a15,15,0,0,1,3,5.56,24.09,24.09,0,0,1,1,7q0,8.88-4.76,13.32t-14,4.44h-5.2V634H657.76V576.9Zm-4.64,24.64a5.41,5.41,0,0,0,4.28-1.68q1.49-1.68,1.48-5.28,0-7-5.76-7h-2.8v13.92Z"/><path class="cls-1" d="M714.48,576.9V634H699.6V576.9Z"/><path class="cls-1" d="M735.2,576.9l9.6,35.2H745V576.9h13.92V634H742.56l-9.92-35.28h-.16V634H718.56V576.9Z"/><path class="cls-1" d="M801.6,603v31H791.52l-.32-5H791a7.92,7.92,0,0,1-2,3,9,9,0,0,1-3,1.8,16.32,16.32,0,0,1-3.52.84,30.06,30.06,0,0,1-3.8.24q-5.69,0-9-1.88a11.8,11.8,0,0,1-5-5.64,28.28,28.28,0,0,1-2.12-9.28q-.45-5.52-.44-12.64a85.4,85.4,0,0,1,.84-12.72,24,24,0,0,1,3.2-9.28,15.07,15.07,0,0,1,6.52-5.72,25.17,25.17,0,0,1,10.72-2,24.27,24.27,0,0,1,7.24,1,14.16,14.16,0,0,1,5.72,3.36,15.89,15.89,0,0,1,3.76,6A25.51,25.51,0,0,1,801.6,595H787.2a20.11,20.11,0,0,0-.8-6.64,3.31,3.31,0,0,0-3.44-2.48,4.46,4.46,0,0,0-2.92.88,5.52,5.52,0,0,0-1.6,3.12,33.31,33.31,0,0,0-.68,6q-.16,3.79-.16,9.56t.16,9.56a33.31,33.31,0,0,0,.68,6,5.83,5.83,0,0,0,1.52,3.12,3.88,3.88,0,0,0,2.68.88,4.54,4.54,0,0,0,2.12-.48,3.82,3.82,0,0,0,1.56-1.8,13.53,13.53,0,0,0,1-3.68,41.38,41.38,0,0,0,.36-6H782.4V603Z"/><path class="cls-1" d="M816.64,576.9v29.92h-11.2V576.9Z"/><path class="cls-1" d="M843.6,592a8.6,8.6,0,0,0-1-4.36,3.45,3.45,0,0,0-3.2-1.8,4,4,0,0,0-3.52,1.56,5.8,5.8,0,0,0-1.12,3.48,5.7,5.7,0,0,0,1.8,4.44,16.57,16.57,0,0,0,4.52,2.84q2.72,1.2,5.84,2.44a26.5,26.5,0,0,1,5.84,3.24,16.08,16.08,0,0,1,4.52,5.24,17.3,17.3,0,0,1,1.8,8.44q0,9.12-5.2,13.24t-15,4.12a39.26,39.26,0,0,1-8.2-.76,14.72,14.72,0,0,1-6-2.64,11.81,11.81,0,0,1-3.72-4.92,19.3,19.3,0,0,1-1.28-7.52v-2H834v1.36q0,3.68,1.36,5.16a4.54,4.54,0,0,0,3.52,1.48,4.24,4.24,0,0,0,3.56-1.6,6.25,6.25,0,0,0,1.24-3.92A5.86,5.86,0,0,0,842,615.1a15.21,15.21,0,0,0-4.32-2.8q-2.61-1.15-5.64-2.36a24.61,24.61,0,0,1-5.64-3.12,15.22,15.22,0,0,1-4.32-5,16.81,16.81,0,0,1-1.72-8.16q0-8.72,4.64-13.28T839,575.78q9.75,0,14.12,4.2t4.36,13.4H843.6Z"/><path class="cls-1" d="M912.64,576.9v12.16h-19v9.76h17.76V610.5H893.68V634H878.79V576.9Z"/><path class="cls-1" d="M939.35,576.9a20.67,20.67,0,0,1,7.24,1.12,12.41,12.41,0,0,1,4.88,3.16,12.11,12.11,0,0,1,2.72,4.84,21.07,21.07,0,0,1,.85,6.08,16.59,16.59,0,0,1-2.33,9.28q-2.31,3.52-7.44,4.32v.16q5.37.48,7.36,3.76c1.34,2.19,2,5.2,2,9v7.2c0,.8,0,1.56.08,2.28a19.67,19.67,0,0,0,.25,2,5,5,0,0,0,.39,1.36c.22.32.43.63.65.92a3.11,3.11,0,0,0,1,.84v.8H941.19a10.24,10.24,0,0,1-.84-2.64c-.18-1-.31-2-.39-3s-.14-2-.17-2.92,0-1.69,0-2.28V619.3a27.73,27.73,0,0,0-.24-4,6.31,6.31,0,0,0-.84-2.52,3.18,3.18,0,0,0-1.52-1.28,6.25,6.25,0,0,0-2.27-.36H931V634H916.07V576.9Zm-5.43,24.16a5.7,5.7,0,0,0,4.71-1.88,7.53,7.53,0,0,0,1.52-4.92q0-3.6-1.48-5.12c-1-1-2.6-1.52-4.84-1.52H931v13.44Z"/><path class="cls-1" d="M993.11,576.9v12.16h-19v9.76h17.76V610.5H974.15v11.36h19.68V634H959.27V576.9Z"/><path class="cls-1" d="M1030.71,576.9v12.16h-19v9.76h17.76V610.5h-17.76v11.36h19.68V634H996.87V576.9Z"/><path class="cls-1" d="M1034.63,576.9h13.92V596l-1.68,21.44h-10.72L1034.63,596Zm13.76,44.48V634H1035V621.38Z"/></svg>