<svg id="slide1" xmlns="http://www.w3.org/2000/svg" viewBox="0 0 1500 1000"><defs><style>.cls-1{fill:#e90f6d;}</style></defs><path class="cls-1" d="M494.8,314.52v12.16h-19v9.76H493.6v11.68H475.84v11.36h19.68v12.16H461V314.52Z"/><path class="cls-1" d="M512.16,314.52l6,43h.16l6-43h15.84l-12.32,57.12h-19.2l-12.08-57.12Z"/><path class="cls-1" d="M576.4,314.52v12.16h-19v9.76H575.2v11.68H557.44v11.36h19.68v12.16H542.56V314.52Z"/><path class="cls-1" d="M604.32,314.52a20.67,20.67,0,0,1,7.24,1.12,12.41,12.41,0,0,1,4.88,3.16,12.11,12.11,0,0,1,2.72,4.84,21.07,21.07,0,0,1,.84,6.08,16.59,16.59,0,0,1-2.32,9.28c-1.55,2.35-4,3.79-7.44,4.32v.16q5.37.48,7.36,3.76t2,9v7.2c0,.8,0,1.56.08,2.28s.14,1.37.24,2a5.33,5.33,0,0,0,.4,1.36c.22.32.43.63.64.92a3.21,3.21,0,0,0,1,.84v.8H606.16a10.24,10.24,0,0,1-.84-2.64,28.76,28.76,0,0,1-.4-3c-.08-1-.13-2-.16-2.92s0-1.69,0-2.28v-3.84a27.73,27.73,0,0,0-.24-4,6.31,6.31,0,0,0-.84-2.52,3.18,3.18,0,0,0-1.52-1.28,6.27,6.27,0,0,0-2.28-.36h-3.92v22.88H581V314.52Zm-5.44,24.16a5.72,5.72,0,0,0,4.72-1.88,7.53,7.53,0,0,0,1.52-4.92q0-3.6-1.48-5.12c-1-1-2.6-1.52-4.84-1.52h-2.88v13.44Z"/><path class="cls-1" d="M619.36,314.52h16.08l5.6,19.92h.16l5.6-19.92h16.32l-14.56,34.64v22.48H633.68V349.16Z"/><path class="cls-1" d="M700.72,314.52l6,33.84h.16l6-33.84h21.28v57.12H720.24V329.08h-.16l-7.92,42.56H701.44l-7.92-42.56h-.16v42.56H679.44V314.52Z"/><path class="cls-1" d="M738.4,329.44a24.13,24.13,0,0,1,3.44-9.2,14,14,0,0,1,6.32-5.2,28.92,28.92,0,0,1,19.2,0,14,14,0,0,1,6.32,5.2,24.13,24.13,0,0,1,3.44,9.2,90,90,0,0,1,0,27.28,24.13,24.13,0,0,1-3.44,9.2,13.26,13.26,0,0,1-6.32,5.08,31.08,31.08,0,0,1-19.2,0,13.26,13.26,0,0,1-6.32-5.08,24.13,24.13,0,0,1-3.44-9.2,90,90,0,0,1,0-27.28Zm14.48,23.2a34.24,34.24,0,0,0,.68,6,5.9,5.9,0,0,0,1.52,3.12,4.52,4.52,0,0,0,5.36,0,5.9,5.9,0,0,0,1.52-3.12,34.24,34.24,0,0,0,.68-6q.17-3.79.16-9.56t-.16-9.56a34.24,34.24,0,0,0-.68-6,5.9,5.9,0,0,0-1.52-3.12,4.52,4.52,0,0,0-5.36,0,5.9,5.9,0,0,0-1.52,3.12,34.24,34.24,0,0,0-.68,6q-.17,3.8-.16,9.56T752.88,352.64Z"/><path class="cls-1" d="M798.56,314.52l9.6,35.2h.16v-35.2h13.92v57.12H805.92L796,336.36h-.16v35.28H781.92V314.52Z"/><path class="cls-1" d="M825.76,327.16V314.52h37.12v12.64h-11.2v44.48H836.8V327.16Z"/><path class="cls-1" d="M881.12,314.52v21h9.12v-21h14.88v57.12H890.24V348.12h-9.12v23.52H866.24V314.52Z"/><path class="cls-1" d="M924.24,355.8v14.4q0,7.6-3.12,11.36t-10.32,3.92V378.6a5.3,5.3,0,0,0,4-1.92,8.46,8.46,0,0,0,1.12-4.8v-.72H910.8V355.8Z"/><path class="cls-1" d="M980.24,314.52,986.08,354h.16l4-39.52h14.4l-9.76,57.12H978.56l-5-38.4h-.16l-5,38.4H952.16l-9.76-57.12h14.4L961.28,354h.16l5.36-39.52Z"/><path class="cls-1" d="M1040.4,314.52v12.16h-19v9.76h17.76v11.68h-17.76v11.36h19.68v12.16h-34.56V314.52Z"/><path class="cls-1" d="M413.44,389.48l13.92,57.12H411.52l-1.52-10H398.16l-1.52,10H381l13.68-57.12ZM404,401.16l-4.08,24.24h8.32l-4.08-24.24Z"/><path class="cls-1" d="M452.08,404.6a8.6,8.6,0,0,0-1-4.36,3.44,3.44,0,0,0-3.2-1.8,4,4,0,0,0-3.52,1.56,5.87,5.87,0,0,0-1.12,3.48,5.7,5.7,0,0,0,1.8,4.44,16.73,16.73,0,0,0,4.52,2.84q2.72,1.2,5.84,2.44a26.27,26.27,0,0,1,5.84,3.24,16.08,16.08,0,0,1,4.52,5.24,17.3,17.3,0,0,1,1.8,8.44q0,9.12-5.2,13.24t-15,4.12a39.39,39.39,0,0,1-8.2-.76,14.84,14.84,0,0,1-6-2.64,11.89,11.89,0,0,1-3.72-4.92,19.48,19.48,0,0,1-1.28-7.52v-2h14.4V431q0,3.67,1.36,5.16a4.56,4.56,0,0,0,3.52,1.48,4.23,4.23,0,0,0,3.56-1.6,6.19,6.19,0,0,0,1.24-3.92,5.82,5.82,0,0,0-1.72-4.44,15.21,15.21,0,0,0-4.32-2.8q-2.6-1.15-5.64-2.36a25,25,0,0,1-5.64-3.12,15.45,15.45,0,0,1-4.32-5,16.93,16.93,0,0,1-1.72-8.16q0-8.71,4.64-13.28t14.08-4.56q9.76,0,14.12,4.2T466,406H452.08Z"/><path class="cls-1" d="M485.6,389.48V411.4h.16l11-21.92h15.84l-14.4,25L514.4,446.6h-17l-8.72-19.92-3.12,4.8V446.6H470.72V389.48Z"/><path class="cls-1" d="M555.36,389.48l13.92,57.12H553.44l-1.52-10H540.08l-1.52,10H523l13.68-57.12Zm-9.44,11.68-4.08,24.24h8.32l-4.08-24.24Z"/><path class="cls-1" d="M624.56,415.56v31H614.48l-.32-5H614a7.92,7.92,0,0,1-2,3,9,9,0,0,1-3,1.8,16.18,16.18,0,0,1-3.52.84,29.94,29.94,0,0,1-3.8.24c-3.79,0-6.77-.63-9-1.88a11.8,11.8,0,0,1-5-5.64,28.28,28.28,0,0,1-2.12-9.28q-.43-5.52-.44-12.64a85.4,85.4,0,0,1,.84-12.72,24.2,24.2,0,0,1,3.2-9.28,15.12,15.12,0,0,1,6.52-5.72,25.2,25.2,0,0,1,10.72-2,24.22,24.22,0,0,1,7.24,1,14.16,14.16,0,0,1,5.72,3.36,15.89,15.89,0,0,1,3.76,6,25.27,25.27,0,0,1,1.36,8.84h-14.4a20.11,20.11,0,0,0-.8-6.64,3.3,3.3,0,0,0-3.44-2.48,4.46,4.46,0,0,0-2.92.88,5.58,5.58,0,0,0-1.6,3.12,34.24,34.24,0,0,0-.68,6q-.16,3.79-.16,9.56t.16,9.56a34.24,34.24,0,0,0,.68,6,5.9,5.9,0,0,0,1.52,3.12,3.9,3.9,0,0,0,2.68.88,4.51,4.51,0,0,0,2.12-.48,3.82,3.82,0,0,0,1.56-1.8,13.18,13.18,0,0,0,1-3.68,41.38,41.38,0,0,0,.36-6h-5.28V415.56Z"/><path class="cls-1" d="M652.4,389.48a20.67,20.67,0,0,1,7.24,1.12,12.41,12.41,0,0,1,4.88,3.16,12.23,12.23,0,0,1,2.72,4.84,21.07,21.07,0,0,1,.84,6.08,16.59,16.59,0,0,1-2.32,9.28q-2.32,3.53-7.44,4.32v.16c3.57.32,6,1.57,7.36,3.76s2,5.2,2,9v7.2c0,.8,0,1.56.08,2.28a17.23,17.23,0,0,0,.24,2,5.33,5.33,0,0,0,.4,1.36c.21.32.43.63.64.92a3.21,3.21,0,0,0,1,.84v.8H654.24a10.24,10.24,0,0,1-.84-2.64,28.76,28.76,0,0,1-.4-3c-.08-1-.13-2-.16-2.92s0-1.69,0-2.28v-3.84a27.73,27.73,0,0,0-.24-4,6.31,6.31,0,0,0-.84-2.52,3.22,3.22,0,0,0-1.52-1.28,6.27,6.27,0,0,0-2.28-.36H644V446.6H629.12V389.48ZM647,413.64a5.72,5.72,0,0,0,4.72-1.88,7.59,7.59,0,0,0,1.52-4.92q0-3.6-1.48-5.12t-4.84-1.52H644v13.44Z"/><path class="cls-1" d="M707.36,389.48v12.16h-19v9.76h17.76v11.68H688.4v11.36h19.68V446.6H673.52V389.48Z"/><path class="cls-1" d="M743.2,389.48l13.92,57.12H741.28l-1.52-10H727.92l-1.52,10H710.8l13.68-57.12Zm-9.44,11.68-4.08,24.24H738l-4.08-24.24Z"/><path class="cls-1" d="M749.76,402.12V389.48h37.12v12.64h-11.2V446.6H760.8V402.12Z"/><path class="cls-1" d="M832.32,389.48l13.92,57.12H830.4l-1.52-10H817l-1.52,10h-15.6l13.68-57.12Zm-9.44,11.68L818.8,425.4h8.32L823,401.16Z"/><path class="cls-1" d="M872,389.48a20.67,20.67,0,0,1,7.24,1.12,12.41,12.41,0,0,1,4.88,3.16,12.11,12.11,0,0,1,2.72,4.84,21.07,21.07,0,0,1,.84,6.08,16.59,16.59,0,0,1-2.32,9.28q-2.31,3.53-7.44,4.32v.16q5.37.48,7.36,3.76c1.34,2.19,2,5.2,2,9v7.2c0,.8,0,1.56.08,2.28s.14,1.37.24,2A5.33,5.33,0,0,0,888,444c.22.32.43.63.64.92a3.33,3.33,0,0,0,1,.84v.8H873.84A10.24,10.24,0,0,1,873,444c-.18-1-.32-2-.4-3s-.13-2-.16-2.92,0-1.69,0-2.28v-3.84a27.73,27.73,0,0,0-.24-4,6.31,6.31,0,0,0-.84-2.52,3.18,3.18,0,0,0-1.52-1.28,6.27,6.27,0,0,0-2.28-.36H863.6V446.6H848.72V389.48Zm-5.44,24.16a5.71,5.71,0,0,0,4.72-1.88,7.53,7.53,0,0,0,1.52-4.92q0-3.6-1.48-5.12c-1-1-2.6-1.52-4.84-1.52H863.6v13.44Z"/><path class="cls-1" d="M889.6,402.12V389.48h37.12v12.64h-11.2V446.6H900.64V402.12Z"/><path class="cls-1" d="M944.4,389.48V446.6H929.52V389.48Z"/><path class="cls-1" d="M971.52,404.6a8.6,8.6,0,0,0-1-4.36,3.44,3.44,0,0,0-3.2-1.8,4,4,0,0,0-3.52,1.56,5.8,5.8,0,0,0-1.12,3.48,5.7,5.7,0,0,0,1.8,4.44,16.73,16.73,0,0,0,4.52,2.84q2.71,1.2,5.84,2.44a26.27,26.27,0,0,1,5.84,3.24,16.08,16.08,0,0,1,4.52,5.24,17.3,17.3,0,0,1,1.8,8.44q0,9.12-5.2,13.24t-15,4.12a39.33,39.33,0,0,1-8.2-.76,14.84,14.84,0,0,1-6-2.64,11.81,11.81,0,0,1-3.72-4.92,19.48,19.48,0,0,1-1.28-7.52v-2h14.4V431q0,3.67,1.36,5.16a4.56,4.56,0,0,0,3.52,1.48,4.23,4.23,0,0,0,3.56-1.6,6.19,6.19,0,0,0,1.24-3.92,5.82,5.82,0,0,0-1.72-4.44,15.21,15.21,0,0,0-4.32-2.8q-2.59-1.15-5.64-2.36a24.61,24.61,0,0,1-5.64-3.12,15.45,15.45,0,0,1-4.32-5,16.81,16.81,0,0,1-1.72-8.16q0-8.71,4.64-13.28T967,388.36q9.76,0,14.12,4.2t4.36,13.4H971.52Z"/><path class="cls-1" d="M987.2,402.12V389.48h37.12v12.64h-11.2V446.6H998.24V402.12Z"/><path class="cls-1" d="M1038.72,402.12V389.48h37.12v12.64h-11.2V446.6h-14.88V402.12Z"/><path class="cls-1" d="M1077,404.4a24.13,24.13,0,0,1,3.44-9.2,14,14,0,0,1,6.32-5.2,28.92,28.92,0,0,1,19.2,0,14,14,0,0,1,6.32,5.2,24.3,24.3,0,0,1,3.44,9.2,90,90,0,0,1,0,27.28,24.3,24.3,0,0,1-3.44,9.2A13.26,13.26,0,0,1,1106,446a31.08,31.08,0,0,1-19.2,0,13.22,13.22,0,0,1-6.32-5.08,24.13,24.13,0,0,1-3.44-9.2,90,90,0,0,1,0-27.28Zm14.48,23.2a33.31,33.31,0,0,0,.68,6,5.83,5.83,0,0,0,1.52,3.12,4.52,4.52,0,0,0,5.36,0,6,6,0,0,0,1.52-3.12,35.22,35.22,0,0,0,.68-6c.1-2.53.16-5.72.16-9.56s-.06-7-.16-9.56a35.22,35.22,0,0,0-.68-6,6,6,0,0,0-1.52-3.12,4.52,4.52,0,0,0-5.36,0,5.83,5.83,0,0,0-1.52,3.12,33.31,33.31,0,0,0-.68,6q-.16,3.79-.16,9.56T1091.52,427.6Z"/><path class="cls-1" d="M430.32,479.56a8.5,8.5,0,0,0-1-4.36,3.44,3.44,0,0,0-3.2-1.8,4,4,0,0,0-3.52,1.56,5.87,5.87,0,0,0-1.12,3.48,5.7,5.7,0,0,0,1.8,4.44,16.73,16.73,0,0,0,4.52,2.84c1.82.8,3.76,1.61,5.84,2.44a26.27,26.27,0,0,1,5.84,3.24,16,16,0,0,1,4.52,5.24,17.3,17.3,0,0,1,1.8,8.44q0,9.12-5.2,13.24t-15,4.12a39.39,39.39,0,0,1-8.2-.76,14.84,14.84,0,0,1-6-2.64,12,12,0,0,1-3.72-4.92,19.48,19.48,0,0,1-1.28-7.52v-2h14.4V506c0,2.45.46,4.17,1.36,5.16a4.56,4.56,0,0,0,3.52,1.48,4.21,4.21,0,0,0,3.56-1.6,6.19,6.19,0,0,0,1.24-3.92,5.82,5.82,0,0,0-1.72-4.44,14.93,14.93,0,0,0-4.32-2.8q-2.6-1.15-5.64-2.36a25,25,0,0,1-5.64-3.12,15.45,15.45,0,0,1-4.32-5,16.93,16.93,0,0,1-1.72-8.16q0-8.71,4.64-13.28t14.08-4.56q9.76,0,14.12,4.2t4.36,13.4H430.32Z"/><path class="cls-1" d="M463.76,505.64c0,2.77.4,4.63,1.2,5.56a4.54,4.54,0,0,0,6.56,0c.8-.93,1.2-2.79,1.2-5.56v-41.2H487.6v37.44a33.08,33.08,0,0,1-1.28,10,15.25,15.25,0,0,1-3.72,6.4,12.73,12.73,0,0,1-6,3.28,39.58,39.58,0,0,1-16.6,0,12.82,12.82,0,0,1-6.08-3.28,15.47,15.47,0,0,1-3.72-6.4,33.4,33.4,0,0,1-1.28-10V464.44h14.88Z"/><path class="cls-1" d="M515.76,464.44a20.67,20.67,0,0,1,7.24,1.12,12.41,12.41,0,0,1,4.88,3.16,12.11,12.11,0,0,1,2.72,4.84,21.07,21.07,0,0,1,.84,6.08,16.59,16.59,0,0,1-2.32,9.28q-2.31,3.52-7.44,4.32v.16q5.37.48,7.36,3.76c1.34,2.19,2,5.2,2,9v7.2c0,.8,0,1.56.08,2.28s.14,1.37.24,2a5.33,5.33,0,0,0,.4,1.36c.22.32.43.63.64.92a3.33,3.33,0,0,0,1,.84v.8H517.6a10.24,10.24,0,0,1-.84-2.64c-.18-1-.32-2-.4-3s-.13-2-.16-2.92,0-1.69,0-2.28v-3.84a27.73,27.73,0,0,0-.24-4,6.31,6.31,0,0,0-.84-2.52,3.18,3.18,0,0,0-1.52-1.28,6.27,6.27,0,0,0-2.28-.36h-3.92v22.88H492.48V464.44Zm-5.44,24.16a5.71,5.71,0,0,0,4.72-1.88,7.53,7.53,0,0,0,1.52-4.92q0-3.6-1.48-5.12c-1-1-2.6-1.52-4.84-1.52h-2.88V488.6Z"/><path class="cls-1" d="M558.64,464.44A18.24,18.24,0,0,1,566,465.8a14.27,14.27,0,0,1,5.16,3.72,15,15,0,0,1,3,5.56,24.09,24.09,0,0,1,1,7q0,8.88-4.76,13.32t-14,4.44h-5.2v21.76H536.32V464.44ZM554,489.08a5.4,5.4,0,0,0,4.28-1.68q1.49-1.68,1.48-5.28,0-7-5.76-7h-2.8v13.92Z"/><path class="cls-1" d="M601.6,464.44a20.67,20.67,0,0,1,7.24,1.12,12.41,12.41,0,0,1,4.88,3.16,12.23,12.23,0,0,1,2.72,4.84,21.07,21.07,0,0,1,.84,6.08,16.59,16.59,0,0,1-2.32,9.28q-2.33,3.52-7.44,4.32v.16c3.57.32,6,1.57,7.36,3.76s2,5.2,2,9v7.2c0,.8,0,1.56.08,2.28a17.23,17.23,0,0,0,.24,2,5.33,5.33,0,0,0,.4,1.36c.21.32.43.63.64.92a3.21,3.21,0,0,0,1,.84v.8H603.44a10.24,10.24,0,0,1-.84-2.64,28.76,28.76,0,0,1-.4-3c-.08-1-.13-2-.16-2.92s0-1.69,0-2.28v-3.84a27.73,27.73,0,0,0-.24-4,6.31,6.31,0,0,0-.84-2.52A3.22,3.22,0,0,0,599.4,499a6.27,6.27,0,0,0-2.28-.36H593.2v22.88H578.32V464.44Zm-5.44,24.16a5.72,5.72,0,0,0,4.72-1.88,7.59,7.59,0,0,0,1.52-4.92q0-3.6-1.48-5.12t-4.84-1.52H593.2V488.6Z"/><path class="cls-1" d="M637,464.44v57.12H622.16V464.44Z"/><path class="cls-1" d="M664.24,479.56a8.6,8.6,0,0,0-1-4.36,3.44,3.44,0,0,0-3.2-1.8,4,4,0,0,0-3.52,1.56,5.8,5.8,0,0,0-1.12,3.48,5.7,5.7,0,0,0,1.8,4.44,16.73,16.73,0,0,0,4.52,2.84q2.72,1.2,5.84,2.44a26.27,26.27,0,0,1,5.84,3.24,16.08,16.08,0,0,1,4.52,5.24,17.3,17.3,0,0,1,1.8,8.44q0,9.12-5.2,13.24t-15,4.12a39.33,39.33,0,0,1-8.2-.76,14.84,14.84,0,0,1-6-2.64,11.81,11.81,0,0,1-3.72-4.92,19.48,19.48,0,0,1-1.28-7.52v-2h14.4V506q0,3.68,1.36,5.16a4.56,4.56,0,0,0,3.52,1.48,4.23,4.23,0,0,0,3.56-1.6,6.19,6.19,0,0,0,1.24-3.92,5.82,5.82,0,0,0-1.72-4.44,15.21,15.21,0,0,0-4.32-2.8q-2.6-1.15-5.64-2.36a24.61,24.61,0,0,1-5.64-3.12,15.45,15.45,0,0,1-4.32-5,16.81,16.81,0,0,1-1.72-8.16q0-8.71,4.64-13.28t14.08-4.56q9.77,0,14.12,4.2t4.36,13.4H664.24Z"/><path class="cls-1" d="M717.28,464.44V476.6h-19v9.76h17.76V498H698.32V509.4H718v12.16H683.44V464.44Z"/><path class="cls-1" d="M733.36,464.44h16.08l5.6,19.92h.16l5.6-19.92h16.32l-14.56,34.64v22.48H747.68V499.08Z"/><path class="cls-1" d="M774.08,479.36a24.13,24.13,0,0,1,3.44-9.2,14,14,0,0,1,6.32-5.2,28.92,28.92,0,0,1,19.2,0,14,14,0,0,1,6.32,5.2,24.3,24.3,0,0,1,3.44,9.2,90,90,0,0,1,0,27.28,24.3,24.3,0,0,1-3.44,9.2,13.26,13.26,0,0,1-6.32,5.08,31.08,31.08,0,0,1-19.2,0,13.22,13.22,0,0,1-6.32-5.08,24.13,24.13,0,0,1-3.44-9.2,90,90,0,0,1,0-27.28Zm14.48,23.2a33.31,33.31,0,0,0,.68,6,5.83,5.83,0,0,0,1.52,3.12,4.52,4.52,0,0,0,5.36,0,6,6,0,0,0,1.52-3.12,35.22,35.22,0,0,0,.68-6c.1-2.53.16-5.72.16-9.56s-.06-7-.16-9.56a35.22,35.22,0,0,0-.68-6,6,6,0,0,0-1.52-3.12,4.52,4.52,0,0,0-5.36,0,5.83,5.83,0,0,0-1.52,3.12,33.31,33.31,0,0,0-.68,6q-.16,3.8-.16,9.56T788.56,502.56Z"/><path class="cls-1" d="M831.84,505.64c0,2.77.4,4.63,1.2,5.56a4.54,4.54,0,0,0,6.56,0c.8-.93,1.2-2.79,1.2-5.56v-41.2h14.88v37.44a33.4,33.4,0,0,1-1.28,10,15.47,15.47,0,0,1-3.72,6.4,12.78,12.78,0,0,1-6,3.28,39.58,39.58,0,0,1-16.6,0,12.72,12.72,0,0,1-6.08-3.28,15.25,15.25,0,0,1-3.72-6.4,33.08,33.08,0,0,1-1.28-10V464.44h14.88Z"/><path class="cls-1" d="M910.88,464.44,916.72,504h.16l4-39.52h14.4l-9.76,57.12H909.2l-5-38.4h-.16l-5,38.4H882.8L873,464.44h14.4L891.92,504h.16l5.36-39.52Z"/><path class="cls-1" d="M951.52,464.44v57.12H936.64V464.44Z"/><path class="cls-1" d="M954.48,477.08V464.44H991.6v12.64H980.4v44.48H965.52V477.08Z"/><path class="cls-1" d="M1009.84,464.44v21H1019v-21h14.88v57.12H1019V498h-9.12v23.52H995V464.44Z"/><path class="cls-1" d="M1083.51,464.44l13.92,57.12h-15.84l-1.52-10h-11.84l-1.52,10h-15.6l13.68-57.12Zm-9.44,11.68L1070,500.36h8.32l-4.08-24.24Z"/><path class="cls-1" d="M403.28,539.4l9.6,35.2H413V539.4H427v57.12H410.64l-9.92-35.28h-.16v35.28H386.64V539.4Z"/><path class="cls-1" d="M466.24,539.4v12.16h-19v9.76H465V573H447.28v11.36H467v12.16H432.4V539.4Z"/><path class="cls-1" d="M506.72,539.4l5.84,39.52h.16l4-39.52h14.4l-9.76,57.12H505l-5-38.4h-.16l-5,38.4H478.64l-9.76-57.12h14.4l4.48,39.52h.16l5.36-39.52Z"/><path class="cls-1" d="M570.88,539.4a18.24,18.24,0,0,1,7.36,1.36,14.27,14.27,0,0,1,5.16,3.72,15,15,0,0,1,3,5.56,24.09,24.09,0,0,1,1,7q0,8.88-4.76,13.32t-14,4.44h-5.2v21.76H548.56V539.4ZM566.24,564a5.39,5.39,0,0,0,4.28-1.68q1.49-1.68,1.48-5.28,0-7-5.76-7h-2.8V564Z"/><path class="cls-1" d="M613.84,539.4a20.67,20.67,0,0,1,7.24,1.12,12.41,12.41,0,0,1,4.88,3.16,12.23,12.23,0,0,1,2.72,4.84,21.07,21.07,0,0,1,.84,6.08,16.59,16.59,0,0,1-2.32,9.28q-2.33,3.52-7.44,4.32v.16c3.57.32,6,1.57,7.36,3.76s2,5.2,2,9v7.2c0,.8,0,1.56.08,2.28a17.23,17.23,0,0,0,.24,2,5.33,5.33,0,0,0,.4,1.36c.21.32.43.63.64.92a3.21,3.21,0,0,0,1,.84v.8H615.68a10.24,10.24,0,0,1-.84-2.64,28.76,28.76,0,0,1-.4-3c-.08-1-.13-2-.16-2.92s0-1.69,0-2.28V581.8a27.73,27.73,0,0,0-.24-4,6.31,6.31,0,0,0-.84-2.52,3.22,3.22,0,0,0-1.52-1.28,6.27,6.27,0,0,0-2.28-.36h-3.92v22.88H590.56V539.4Zm-5.44,24.16a5.72,5.72,0,0,0,4.72-1.88,7.59,7.59,0,0,0,1.52-4.92q0-3.6-1.48-5.12t-4.84-1.52h-2.88v13.44Z"/><path class="cls-1" d="M649.28,539.4v57.12H634.4V539.4Z"/><path class="cls-1" d="M670.8,539.4l9.6,35.2h.16V539.4h13.92v57.12H678.16l-9.92-35.28h-.16v35.28H654.16V539.4Z"/><path class="cls-1" d="M698,552V539.4h37.12V552h-11.2v44.48H709V552Z"/><path class="cls-1" d="M775.2,554.52a8.6,8.6,0,0,0-1-4.36,3.45,3.45,0,0,0-3.2-1.8,4,4,0,0,0-3.52,1.56,5.8,5.8,0,0,0-1.12,3.48,5.7,5.7,0,0,0,1.8,4.44,16.73,16.73,0,0,0,4.52,2.84q2.72,1.2,5.84,2.44a26.5,26.5,0,0,1,5.84,3.24,16.08,16.08,0,0,1,4.52,5.24,17.3,17.3,0,0,1,1.8,8.44q0,9.12-5.2,13.24t-15,4.12a39.26,39.26,0,0,1-8.2-.76,14.84,14.84,0,0,1-6-2.64,11.81,11.81,0,0,1-3.72-4.92,19.3,19.3,0,0,1-1.28-7.52v-2h14.4v1.36q0,3.68,1.36,5.16a4.54,4.54,0,0,0,3.52,1.48A4.24,4.24,0,0,0,774,586a6.25,6.25,0,0,0,1.24-3.92,5.82,5.82,0,0,0-1.72-4.44,15.21,15.21,0,0,0-4.32-2.8q-2.61-1.15-5.64-2.36a24.61,24.61,0,0,1-5.64-3.12,15.34,15.34,0,0,1-4.32-5,16.81,16.81,0,0,1-1.72-8.16q0-8.72,4.64-13.28t14.08-4.56q9.75,0,14.12,4.2t4.36,13.4H775.2Z"/><path class="cls-1" d="M828.24,539.4v12.16h-19v9.76H827V573H809.28v11.36H829v12.16H794.4V539.4Z"/><path class="cls-1" d="M849.52,539.4l9.6,35.2h.16V539.4H873.2v57.12H856.88L847,561.24h-.16v35.28H832.88V539.4Z"/><path class="cls-1" d="M876.72,552V539.4h37.12V552h-11.2v44.48H887.76V552Z"/><path class="cls-1" d="M955,539.4a20.71,20.71,0,0,1,7.24,1.12,12.48,12.48,0,0,1,4.88,3.16,12.23,12.23,0,0,1,2.72,4.84,21.07,21.07,0,0,1,.84,6.08,16.68,16.68,0,0,1-2.32,9.28q-2.33,3.52-7.44,4.32v.16q5.36.48,7.36,3.76t2,9v7.2c0,.8,0,1.56.08,2.28a17.23,17.23,0,0,0,.24,2A5,5,0,0,0,971,594c.21.32.42.63.64.92a3.21,3.21,0,0,0,1,.84v.8H956.8a9.52,9.52,0,0,1-.84-2.64,28.76,28.76,0,0,1-.4-3c-.08-1-.14-2-.16-2.92s0-1.69,0-2.28V581.8a27.73,27.73,0,0,0-.24-4,6.31,6.31,0,0,0-.84-2.52,3.22,3.22,0,0,0-1.52-1.28,6.34,6.34,0,0,0-2.28-.36h-3.92v22.88H931.68V539.4Zm-5.44,24.16a5.73,5.73,0,0,0,4.72-1.88,7.59,7.59,0,0,0,1.52-4.92c0-2.4-.5-4.11-1.48-5.12s-2.6-1.52-4.84-1.52h-2.88v13.44Z"/><path class="cls-1" d="M990.39,539.4v57.12H975.51V539.4Z"/><path class="cls-1" d="M1033.75,565.48v31h-10.08l-.32-5h-.16a7.92,7.92,0,0,1-2,3,8.86,8.86,0,0,1-3,1.8,16,16,0,0,1-3.52.84,29.94,29.94,0,0,1-3.8.24q-5.67,0-9-1.88a11.85,11.85,0,0,1-5-5.64,28.53,28.53,0,0,1-2.12-9.28q-.44-5.52-.44-12.64a85.4,85.4,0,0,1,.84-12.72,24.2,24.2,0,0,1,3.2-9.28,15.18,15.18,0,0,1,6.52-5.72,25.23,25.23,0,0,1,10.72-2,24.17,24.17,0,0,1,7.24,1,14.09,14.09,0,0,1,5.72,3.36,15.77,15.77,0,0,1,3.76,6,25.27,25.27,0,0,1,1.36,8.84h-14.4a19.84,19.84,0,0,0-.8-6.64,3.3,3.3,0,0,0-3.44-2.48,4.48,4.48,0,0,0-2.92.88,5.58,5.58,0,0,0-1.6,3.12,35.22,35.22,0,0,0-.68,6c-.1,2.53-.16,5.72-.16,9.56s.06,7,.16,9.56a35.22,35.22,0,0,0,.68,6,6,6,0,0,0,1.52,3.12,3.9,3.9,0,0,0,2.68.88,4.51,4.51,0,0,0,2.12-.48,3.72,3.72,0,0,0,1.56-1.8,13.18,13.18,0,0,0,1-3.68,41.38,41.38,0,0,0,.36-6h-5.28V565.48Z"/><path class="cls-1" d="M1053.2,539.4v21h9.11v-21h14.89v57.12h-14.89V573h-9.11v23.52h-14.89V539.4Z"/><path class="cls-1" d="M1080.71,552V539.4h37.12V552h-11.2v44.48h-14.88V552Z"/><path class="cls-1" d="M442.8,627V614.36h37.12V627h-11.2v44.48H453.84V627Z"/><path class="cls-1" d="M481.12,629.28a24.13,24.13,0,0,1,3.44-9.2,14,14,0,0,1,6.32-5.2,28.92,28.92,0,0,1,19.2,0,14,14,0,0,1,6.32,5.2,24.13,24.13,0,0,1,3.44,9.2,90,90,0,0,1,0,27.28,24.13,24.13,0,0,1-3.44,9.2,13.26,13.26,0,0,1-6.32,5.08,31.08,31.08,0,0,1-19.2,0,13.26,13.26,0,0,1-6.32-5.08,24.13,24.13,0,0,1-3.44-9.2,90,90,0,0,1,0-27.28Zm14.48,23.2a34.24,34.24,0,0,0,.68,6,5.9,5.9,0,0,0,1.52,3.12,4.52,4.52,0,0,0,5.36,0,5.9,5.9,0,0,0,1.52-3.12,34.24,34.24,0,0,0,.68-6q.17-3.79.16-9.56t-.16-9.56a34.24,34.24,0,0,0-.68-6,5.9,5.9,0,0,0-1.52-3.12,4.52,4.52,0,0,0-5.36,0,5.9,5.9,0,0,0-1.52,3.12,34.24,34.24,0,0,0-.68,6c-.1,2.53-.16,5.72-.16,9.56S495.5,650,495.6,652.48Z"/><path class="cls-1" d="M536.24,614.36h16.08l5.6,19.92h.16l5.6-19.92H580L565.44,649v22.48H550.56V649Z"/><path class="cls-1" d="M577,629.28a24.13,24.13,0,0,1,3.44-9.2,14,14,0,0,1,6.32-5.2,28.92,28.92,0,0,1,19.2,0,14,14,0,0,1,6.32,5.2,24.13,24.13,0,0,1,3.44,9.2,90,90,0,0,1,0,27.28,24.13,24.13,0,0,1-3.44,9.2,13.26,13.26,0,0,1-6.32,5.08,31.08,31.08,0,0,1-19.2,0,13.26,13.26,0,0,1-6.32-5.08,24.13,24.13,0,0,1-3.44-9.2,90,90,0,0,1,0-27.28Zm14.48,23.2a34.24,34.24,0,0,0,.68,6,5.9,5.9,0,0,0,1.52,3.12,4.52,4.52,0,0,0,5.36,0,5.9,5.9,0,0,0,1.52-3.12,34.24,34.24,0,0,0,.68-6q.16-3.79.16-9.56t-.16-9.56a34.24,34.24,0,0,0-.68-6A5.9,5.9,0,0,0,599,624.2a4.52,4.52,0,0,0-5.36,0,5.9,5.9,0,0,0-1.52,3.12,34.24,34.24,0,0,0-.68,6q-.16,3.79-.16,9.56T591.44,652.48Z"/><path class="cls-1" d="M634.72,655.56c0,2.77.4,4.63,1.2,5.56a4.54,4.54,0,0,0,6.56,0c.8-.93,1.2-2.79,1.2-5.56v-41.2h14.88V651.8a33.4,33.4,0,0,1-1.28,10,15.25,15.25,0,0,1-3.72,6.4,12.78,12.78,0,0,1-6,3.28,39.58,39.58,0,0,1-16.6,0,12.77,12.77,0,0,1-6.08-3.28,15.25,15.25,0,0,1-3.72-6.4,33.4,33.4,0,0,1-1.28-10V614.36h14.88Z"/><path class="cls-1" d="M686.72,614.36a20.67,20.67,0,0,1,7.24,1.12,12.41,12.41,0,0,1,4.88,3.16,12.23,12.23,0,0,1,2.72,4.84,21.07,21.07,0,0,1,.84,6.08,16.59,16.59,0,0,1-2.32,9.28q-2.33,3.52-7.44,4.32v.16c3.57.32,6,1.57,7.36,3.76s2,5.2,2,9v7.2c0,.8,0,1.56.08,2.28a17.23,17.23,0,0,0,.24,2,5.33,5.33,0,0,0,.4,1.36c.21.32.43.63.64.92a3.21,3.21,0,0,0,1,.84v.8H688.56a10.24,10.24,0,0,1-.84-2.64,28.76,28.76,0,0,1-.4-3c-.08-1-.13-2-.16-2.92s0-1.69,0-2.28v-3.84a27.73,27.73,0,0,0-.24-4,6.31,6.31,0,0,0-.84-2.52,3.22,3.22,0,0,0-1.52-1.28,6.27,6.27,0,0,0-2.28-.36h-3.92v22.88H663.44V614.36Zm-5.44,24.16a5.72,5.72,0,0,0,4.72-1.88,7.59,7.59,0,0,0,1.52-4.92q0-3.6-1.48-5.12t-4.84-1.52h-2.88v13.44Z"/><path class="cls-1" d="M745.52,614.36q6.48,0,10.08,2.36A14.63,14.63,0,0,1,761,623a27,27,0,0,1,2.2,9.12q.4,5.16.4,10.76t-.4,10.76a27,27,0,0,1-2.2,9.12,14.63,14.63,0,0,1-5.4,6.32q-3.6,2.36-10.08,2.36h-21.6V614.36Zm-3.76,46.4a8.2,8.2,0,0,0,3.44-.6,4.09,4.09,0,0,0,2-2.52,20.5,20.5,0,0,0,.88-5.44q.19-3.53.2-9.28t-.2-9.28a20.5,20.5,0,0,0-.88-5.44,4.09,4.09,0,0,0-2-2.52,8.2,8.2,0,0,0-3.44-.6h-3v35.68Z"/><path class="cls-1" d="M767.68,629.28a24.13,24.13,0,0,1,3.44-9.2,14,14,0,0,1,6.32-5.2,28.92,28.92,0,0,1,19.2,0,14,14,0,0,1,6.32,5.2,24.13,24.13,0,0,1,3.44,9.2,90,90,0,0,1,0,27.28,24.13,24.13,0,0,1-3.44,9.2,13.26,13.26,0,0,1-6.32,5.08,31.08,31.08,0,0,1-19.2,0,13.26,13.26,0,0,1-6.32-5.08,24.13,24.13,0,0,1-3.44-9.2,90,90,0,0,1,0-27.28Zm14.48,23.2a33.31,33.31,0,0,0,.68,6,5.9,5.9,0,0,0,1.52,3.12,4.52,4.52,0,0,0,5.36,0,6,6,0,0,0,1.52-3.12,35.22,35.22,0,0,0,.68-6q.17-3.79.16-9.56t-.16-9.56a35.22,35.22,0,0,0-.68-6,6,6,0,0,0-1.52-3.12,4.52,4.52,0,0,0-5.36,0,5.9,5.9,0,0,0-1.52,3.12,33.31,33.31,0,0,0-.68,6q-.17,3.79-.16,9.56T782.16,652.48Z"/><path class="cls-1" d="M810.56,629.28a24.13,24.13,0,0,1,3.44-9.2,14,14,0,0,1,6.32-5.2,28.92,28.92,0,0,1,19.2,0,14,14,0,0,1,6.32,5.2,24.3,24.3,0,0,1,3.44,9.2,90,90,0,0,1,0,27.28,24.3,24.3,0,0,1-3.44,9.2,13.26,13.26,0,0,1-6.32,5.08,31.08,31.08,0,0,1-19.2,0,13.26,13.26,0,0,1-6.32-5.08,24.13,24.13,0,0,1-3.44-9.2,90,90,0,0,1,0-27.28ZM825,652.48a33.31,33.31,0,0,0,.68,6,5.9,5.9,0,0,0,1.52,3.12,4.52,4.52,0,0,0,5.36,0,6,6,0,0,0,1.52-3.12,35.22,35.22,0,0,0,.68-6q.16-3.79.16-9.56t-.16-9.56a35.22,35.22,0,0,0-.68-6,6,6,0,0,0-1.52-3.12,4.52,4.52,0,0,0-5.36,0,5.9,5.9,0,0,0-1.52,3.12,33.31,33.31,0,0,0-.68,6q-.16,3.79-.16,9.56T825,652.48Z"/><path class="cls-1" d="M877.44,614.36a20.71,20.71,0,0,1,7.24,1.12,12.48,12.48,0,0,1,4.88,3.16,12.23,12.23,0,0,1,2.72,4.84,21.07,21.07,0,0,1,.84,6.08,16.68,16.68,0,0,1-2.32,9.28q-2.32,3.52-7.44,4.32v.16q5.35.48,7.36,3.76t2,9v7.2c0,.8,0,1.56.08,2.28a17.23,17.23,0,0,0,.24,2,5,5,0,0,0,.4,1.36c.21.32.43.63.64.92a3.21,3.21,0,0,0,1,.84v.8H879.28a9.87,9.87,0,0,1-.84-2.64,28.76,28.76,0,0,1-.4-3c-.08-1-.13-2-.16-2.92s0-1.69,0-2.28v-3.84a27.73,27.73,0,0,0-.24-4,6.31,6.31,0,0,0-.84-2.52,3.22,3.22,0,0,0-1.52-1.28,6.3,6.3,0,0,0-2.28-.36H869v22.88H854.16V614.36ZM872,638.52a5.72,5.72,0,0,0,4.72-1.88,7.59,7.59,0,0,0,1.52-4.92q0-3.6-1.48-5.12t-4.84-1.52H869v13.44Z"/><path class="cls-1" d="M920.8,629.48a8.6,8.6,0,0,0-1-4.36,3.45,3.45,0,0,0-3.2-1.8,4,4,0,0,0-3.52,1.56,5.8,5.8,0,0,0-1.12,3.48,5.7,5.7,0,0,0,1.8,4.44,16.57,16.57,0,0,0,4.52,2.84q2.71,1.2,5.84,2.44a26.5,26.5,0,0,1,5.84,3.24,16.08,16.08,0,0,1,4.52,5.24,17.3,17.3,0,0,1,1.8,8.44q0,9.12-5.2,13.24t-15,4.12a39.26,39.26,0,0,1-8.2-.76,14.72,14.72,0,0,1-6-2.64,11.81,11.81,0,0,1-3.72-4.92,19.3,19.3,0,0,1-1.28-7.52v-2h14.4v1.36q0,3.68,1.36,5.16a4.54,4.54,0,0,0,3.52,1.48,4.24,4.24,0,0,0,3.56-1.6,6.25,6.25,0,0,0,1.24-3.92,5.86,5.86,0,0,0-1.72-4.44,15.21,15.21,0,0,0-4.32-2.8q-2.61-1.15-5.64-2.36a24.61,24.61,0,0,1-5.64-3.12,15.22,15.22,0,0,1-4.32-5,16.81,16.81,0,0,1-1.72-8.16q0-8.72,4.64-13.28t14.08-4.56q9.75,0,14.12,4.2t4.36,13.4H920.8Z"/><path class="cls-1" d="M936.48,627V614.36H973.6V627H962.4v44.48H947.52V627Z"/><path class="cls-1" d="M1010.8,614.36v12.16h-19v9.76h17.76V648H991.84v11.36h19.68v12.16H977V614.36Z"/><path class="cls-1" d="M1037.12,614.36a18.28,18.28,0,0,1,7.36,1.36,14.27,14.27,0,0,1,5.16,3.72,15,15,0,0,1,3,5.56,24.09,24.09,0,0,1,1,7q0,8.88-4.76,13.32t-14,4.44h-5.2v21.76H1014.8V614.36ZM1032.48,639a5.41,5.41,0,0,0,4.28-1.68c1-1.12,1.48-2.88,1.48-5.28q0-7-5.76-7h-2.8V639Z"/><path class="cls-1" d="M1054.4,655.64v15.84H1041V655.64Z"/></svg>