<svg id="Layer_8" data-name="Layer 8" xmlns="http://www.w3.org/2000/svg" viewBox="0 0 1500 1000"><defs><style>.cls-1{fill:#fff;}.cls-2{fill:#ed2024;}.cls-3{fill:#d42027;}</style></defs><path class="cls-1" d="M403.56,404.64a8.5,8.5,0,0,0-1-4.36,3.44,3.44,0,0,0-3.2-1.8A4,4,0,0,0,395.8,400a5.87,5.87,0,0,0-1.12,3.48,5.7,5.7,0,0,0,1.8,4.44A16.73,16.73,0,0,0,401,410.8c1.82.8,3.76,1.61,5.84,2.44a26.27,26.27,0,0,1,5.84,3.24,16,16,0,0,1,4.52,5.24,17.3,17.3,0,0,1,1.8,8.44q0,9.12-5.2,13.24t-15,4.12a39.39,39.39,0,0,1-8.2-.76,14.84,14.84,0,0,1-6-2.64,12,12,0,0,1-3.72-4.92,19.48,19.48,0,0,1-1.28-7.52v-2H394V431c0,2.45.46,4.17,1.36,5.16a4.56,4.56,0,0,0,3.52,1.48,4.21,4.21,0,0,0,3.56-1.6,6.19,6.19,0,0,0,1.24-3.92,5.82,5.82,0,0,0-1.72-4.44,14.93,14.93,0,0,0-4.32-2.8q-2.6-1.16-5.64-2.36a25,25,0,0,1-5.64-3.12,15.45,15.45,0,0,1-4.32-5,16.93,16.93,0,0,1-1.72-8.16q0-8.72,4.64-13.28T399,388.4q9.76,0,14.12,4.2t4.36,13.4H403.56Z"/><path class="cls-1" d="M417.64,402.16V389.52h37.12v12.64h-11.2v44.48H428.68V402.16Z"/><path class="cls-1" d="M478.68,389.52l13.92,57.12H476.76l-1.52-10H463.4l-1.52,10h-15.6L460,389.52Zm-9.44,11.68-4.08,24.24h8.32L469.4,401.2Z"/><path class="cls-1" d="M515.24,389.52a20.67,20.67,0,0,1,7.24,1.12,12.41,12.41,0,0,1,4.88,3.16,12.11,12.11,0,0,1,2.72,4.84,21.07,21.07,0,0,1,.84,6.08A16.59,16.59,0,0,1,528.6,414c-1.55,2.35-4,3.79-7.44,4.32v.16q5.37.48,7.36,3.76t2,9v7.2c0,.8,0,1.56.08,2.28s.14,1.37.24,2a5.33,5.33,0,0,0,.4,1.36c.22.32.43.63.64.92a3.21,3.21,0,0,0,1,.84v.8H517.08a10.24,10.24,0,0,1-.84-2.64,28.76,28.76,0,0,1-.4-3c-.08-1-.13-2-.16-2.92s0-1.69,0-2.28v-3.84a27.73,27.73,0,0,0-.24-4,6.31,6.31,0,0,0-.84-2.52,3.18,3.18,0,0,0-1.52-1.28,6.27,6.27,0,0,0-2.28-.36h-3.92v22.88H492V389.52Zm-5.44,24.16a5.72,5.72,0,0,0,4.72-1.88,7.53,7.53,0,0,0,1.52-4.92q0-3.6-1.48-5.12c-1-1-2.6-1.52-4.84-1.52h-2.88v13.44Z"/><path class="cls-1" d="M529.8,402.16V389.52h37.12v12.64h-11.2v44.48H540.84V402.16Z"/><path class="cls-1" d="M577.4,389.52h16.08l5.6,19.92h.16l5.6-19.92h16.32L606.6,424.16v22.48H591.72V424.16Z"/><path class="cls-1" d="M617.48,404.44a24.13,24.13,0,0,1,3.44-9.2,14,14,0,0,1,6.32-5.2,28.92,28.92,0,0,1,19.2,0,14,14,0,0,1,6.32,5.2,24.3,24.3,0,0,1,3.44,9.2,90,90,0,0,1,0,27.28,24.3,24.3,0,0,1-3.44,9.2,13.26,13.26,0,0,1-6.32,5.08,31.08,31.08,0,0,1-19.2,0,13.22,13.22,0,0,1-6.32-5.08,24.13,24.13,0,0,1-3.44-9.2,90,90,0,0,1,0-27.28ZM632,427.64a33.31,33.31,0,0,0,.68,6,5.9,5.9,0,0,0,1.52,3.12,4.52,4.52,0,0,0,5.36,0,6,6,0,0,0,1.52-3.12,35.22,35.22,0,0,0,.68-6q.16-3.79.16-9.56t-.16-9.56a35.22,35.22,0,0,0-.68-6,6,6,0,0,0-1.52-3.12,4.52,4.52,0,0,0-5.36,0,5.9,5.9,0,0,0-1.52,3.12,33.31,33.31,0,0,0-.68,6q-.16,3.8-.16,9.56T632,427.64Z"/><path class="cls-1" d="M673.72,430.72c0,2.77.4,4.63,1.2,5.56a4.54,4.54,0,0,0,6.56,0c.8-.93,1.2-2.79,1.2-5.56v-41.2h14.88V427a33.4,33.4,0,0,1-1.28,10,15.36,15.36,0,0,1-3.72,6.4,12.78,12.78,0,0,1-6,3.28,39.58,39.58,0,0,1-16.6,0,12.72,12.72,0,0,1-6.08-3.28,15.25,15.25,0,0,1-3.72-6.4,33.4,33.4,0,0,1-1.28-10V389.52h14.88Z"/><path class="cls-1" d="M724,389.52a20.67,20.67,0,0,1,7.24,1.12,12.41,12.41,0,0,1,4.88,3.16,12.23,12.23,0,0,1,2.72,4.84,21.07,21.07,0,0,1,.84,6.08A16.59,16.59,0,0,1,737.4,414q-2.32,3.53-7.44,4.32v.16c3.57.32,6,1.57,7.36,3.76s2,5.2,2,9v7.2c0,.8,0,1.56.08,2.28a17.23,17.23,0,0,0,.24,2,5.33,5.33,0,0,0,.4,1.36c.21.32.43.63.64.92a3.21,3.21,0,0,0,1,.84v.8H725.88A10.24,10.24,0,0,1,725,444a28.76,28.76,0,0,1-.4-3c-.08-1-.13-2-.16-2.92s0-1.69,0-2.28v-3.84a27.73,27.73,0,0,0-.24-4,6.31,6.31,0,0,0-.84-2.52,3.22,3.22,0,0,0-1.52-1.28,6.27,6.27,0,0,0-2.28-.36h-3.92v22.88H700.76V389.52Zm-5.44,24.16a5.72,5.72,0,0,0,4.72-1.88,7.59,7.59,0,0,0,1.52-4.92q0-3.6-1.48-5.12t-4.84-1.52h-2.88v13.44Z"/><path class="cls-1" d="M783.08,400.24a3.29,3.29,0,0,0-3.12-1.76,3.88,3.88,0,0,0-2.68.88,5.83,5.83,0,0,0-1.52,3.12,33.31,33.31,0,0,0-.68,6q-.17,3.8-.16,9.56t.16,9.56a33.31,33.31,0,0,0,.68,6,5.83,5.83,0,0,0,1.52,3.12,3.88,3.88,0,0,0,2.68.88,3.6,3.6,0,0,0,2.24-.68,4.39,4.39,0,0,0,1.36-2.28,21.29,21.29,0,0,0,.68-4.28q.19-2.69.2-6.76h14.4v4.24a26,26,0,0,1-1.6,9.84,15.43,15.43,0,0,1-4.24,6,14.14,14.14,0,0,1-6,3,31.81,31.81,0,0,1-7,.76A29.26,29.26,0,0,1,769.72,446a12.33,12.33,0,0,1-6.24-5.08,23.65,23.65,0,0,1-3.08-9.2,94.43,94.43,0,0,1-.84-13.64,81.08,81.08,0,0,1,1-13.84A23.34,23.34,0,0,1,764,395a13.51,13.51,0,0,1,6.32-5.08A26.28,26.28,0,0,1,780,388.4a25.27,25.27,0,0,1,8.56,1.28,13.68,13.68,0,0,1,8.92,9.32,26.14,26.14,0,0,1,1,7.48v3.6H784v-3.2C784,403.63,783.72,401.41,783.08,400.24Z"/><path class="cls-1" d="M800.44,404.44a24.13,24.13,0,0,1,3.44-9.2,14,14,0,0,1,6.32-5.2,28.92,28.92,0,0,1,19.2,0,14,14,0,0,1,6.32,5.2,24.3,24.3,0,0,1,3.44,9.2,90,90,0,0,1,0,27.28,24.3,24.3,0,0,1-3.44,9.2A13.26,13.26,0,0,1,829.4,446a31.08,31.08,0,0,1-19.2,0,13.22,13.22,0,0,1-6.32-5.08,24.13,24.13,0,0,1-3.44-9.2,90,90,0,0,1,0-27.28Zm14.48,23.2a33.31,33.31,0,0,0,.68,6,5.83,5.83,0,0,0,1.52,3.12,4.52,4.52,0,0,0,5.36,0,6,6,0,0,0,1.52-3.12,35.22,35.22,0,0,0,.68-6c.1-2.53.16-5.72.16-9.56s-.06-7-.16-9.56a35.22,35.22,0,0,0-.68-6,6,6,0,0,0-1.52-3.12,4.52,4.52,0,0,0-5.36,0,5.83,5.83,0,0,0-1.52,3.12,33.31,33.31,0,0,0-.68,6q-.17,3.8-.16,9.56T814.92,427.64Z"/><path class="cls-1" d="M857.32,389.52v45h18.32v12.16h-33.2V389.52Z"/><path class="cls-1" d="M891.16,389.52v45h18.32v12.16h-33.2V389.52Z"/><path class="cls-1" d="M944,389.52v12.16H925v9.76h17.76v11.68H925v11.36h19.68v12.16H910.12V389.52Z"/><path class="cls-1" d="M968.84,400.24a3.29,3.29,0,0,0-3.12-1.76,3.88,3.88,0,0,0-2.68.88,5.83,5.83,0,0,0-1.52,3.12,33.31,33.31,0,0,0-.68,6q-.17,3.8-.16,9.56t.16,9.56a33.31,33.31,0,0,0,.68,6A5.83,5.83,0,0,0,963,436.8a3.88,3.88,0,0,0,2.68.88A3.6,3.6,0,0,0,968,437a4.39,4.39,0,0,0,1.36-2.28,21.29,21.29,0,0,0,.68-4.28q.19-2.69.2-6.76h14.4v4.24a26,26,0,0,1-1.6,9.84,15.43,15.43,0,0,1-4.24,6,14.14,14.14,0,0,1-6,3,31.81,31.81,0,0,1-7,.76A29.26,29.26,0,0,1,955.48,446a12.33,12.33,0,0,1-6.24-5.08,23.65,23.65,0,0,1-3.08-9.2,94.43,94.43,0,0,1-.84-13.64,81.08,81.08,0,0,1,1-13.84,23.34,23.34,0,0,1,3.4-9.2A13.51,13.51,0,0,1,956,390a26.28,26.28,0,0,1,9.68-1.56,25.27,25.27,0,0,1,8.56,1.28A13.68,13.68,0,0,1,983.2,399a26.14,26.14,0,0,1,1,7.48v3.6H969.8v-3.2C969.8,403.63,969.48,401.41,968.84,400.24Z"/><path class="cls-1" d="M983.32,402.16V389.52h37.12v12.64h-11.2v44.48H994.36V402.16Z"/><path class="cls-1" d="M1035,389.52v57.12h-14.88V389.52Z"/><path class="cls-1" d="M1037.71,404.44a24.3,24.3,0,0,1,3.44-9.2,14,14,0,0,1,6.32-5.2,28.92,28.92,0,0,1,19.2,0,14,14,0,0,1,6.32,5.2,24.13,24.13,0,0,1,3.44,9.2,90,90,0,0,1,0,27.28,24.13,24.13,0,0,1-3.44,9.2,13.22,13.22,0,0,1-6.32,5.08,31.08,31.08,0,0,1-19.2,0,13.26,13.26,0,0,1-6.32-5.08,24.3,24.3,0,0,1-3.44-9.2,90,90,0,0,1,0-27.28Zm14.48,23.2a35.22,35.22,0,0,0,.68,6,6,6,0,0,0,1.52,3.12,4.52,4.52,0,0,0,5.36,0,5.83,5.83,0,0,0,1.52-3.12,33.31,33.31,0,0,0,.68-6q.16-3.79.16-9.56t-.16-9.56a33.31,33.31,0,0,0-.68-6,5.83,5.83,0,0,0-1.52-3.12,4.52,4.52,0,0,0-5.36,0,6,6,0,0,0-1.52,3.12,35.22,35.22,0,0,0-.68,6c-.1,2.53-.16,5.72-.16,9.56S1052.09,425.11,1052.19,427.64Z"/><path class="cls-1" d="M1096.27,389.52l9.6,35.2h.16v-35.2H1120v57.12h-16.32l-9.92-35.28h-.16v35.28h-13.92V389.52Z"/><path class="cls-1" d="M422.12,464.48,436,521.6H420.2l-1.52-10H406.84l-1.52,10h-15.6l13.68-57.12Zm-9.44,11.68L408.6,500.4h8.32l-4.08-24.24Z"/><path class="cls-1" d="M457.56,479.6a8.5,8.5,0,0,0-1-4.36,3.44,3.44,0,0,0-3.2-1.8A4,4,0,0,0,449.8,475a5.87,5.87,0,0,0-1.12,3.48,5.7,5.7,0,0,0,1.8,4.44,16.73,16.73,0,0,0,4.52,2.84c1.82.8,3.76,1.61,5.84,2.44a26.27,26.27,0,0,1,5.84,3.24,16,16,0,0,1,4.52,5.24,17.3,17.3,0,0,1,1.8,8.44q0,9.12-5.2,13.24t-15,4.12a39.39,39.39,0,0,1-8.2-.76,14.84,14.84,0,0,1-6-2.64,12,12,0,0,1-3.72-4.92,19.48,19.48,0,0,1-1.28-7.52v-2H448V506c0,2.45.46,4.17,1.36,5.16a4.56,4.56,0,0,0,3.52,1.48,4.21,4.21,0,0,0,3.56-1.6,6.19,6.19,0,0,0,1.24-3.92,5.82,5.82,0,0,0-1.72-4.44,14.93,14.93,0,0,0-4.32-2.8q-2.6-1.15-5.64-2.36a25,25,0,0,1-5.64-3.12,15.45,15.45,0,0,1-4.32-5,16.93,16.93,0,0,1-1.72-8.16q0-8.71,4.64-13.28T453,463.36q9.76,0,14.12,4.2t4.36,13.4H457.56Z"/><path class="cls-1" d="M515,479.6a8.6,8.6,0,0,0-1-4.36,3.44,3.44,0,0,0-3.2-1.8,4,4,0,0,0-3.52,1.56,5.87,5.87,0,0,0-1.12,3.48,5.7,5.7,0,0,0,1.8,4.44,16.73,16.73,0,0,0,4.52,2.84q2.71,1.2,5.84,2.44a26.27,26.27,0,0,1,5.84,3.24,16.08,16.08,0,0,1,4.52,5.24,17.3,17.3,0,0,1,1.8,8.44q0,9.12-5.2,13.24t-15,4.12a39.39,39.39,0,0,1-8.2-.76,14.84,14.84,0,0,1-6-2.64,11.89,11.89,0,0,1-3.72-4.92,19.48,19.48,0,0,1-1.28-7.52v-2h14.4V506q0,3.67,1.36,5.16a4.56,4.56,0,0,0,3.52,1.48,4.23,4.23,0,0,0,3.56-1.6,6.19,6.19,0,0,0,1.24-3.92,5.82,5.82,0,0,0-1.72-4.44,15.21,15.21,0,0,0-4.32-2.8q-2.6-1.15-5.64-2.36a25,25,0,0,1-5.64-3.12,15.45,15.45,0,0,1-4.32-5,16.81,16.81,0,0,1-1.72-8.16q0-8.71,4.64-13.28t14.08-4.56q9.77,0,14.12,4.2t4.36,13.4H515Z"/><path class="cls-1" d="M532,479.4a24.13,24.13,0,0,1,3.44-9.2,14,14,0,0,1,6.32-5.2,28.92,28.92,0,0,1,19.2,0,14,14,0,0,1,6.32,5.2,24.13,24.13,0,0,1,3.44,9.2,90,90,0,0,1,0,27.28,24.13,24.13,0,0,1-3.44,9.2,13.26,13.26,0,0,1-6.32,5.08,31.08,31.08,0,0,1-19.2,0,13.26,13.26,0,0,1-6.32-5.08,24.13,24.13,0,0,1-3.44-9.2,90,90,0,0,1,0-27.28Zm14.48,23.2a34.24,34.24,0,0,0,.68,6,5.9,5.9,0,0,0,1.52,3.12,4.52,4.52,0,0,0,5.36,0,5.9,5.9,0,0,0,1.52-3.12,34.24,34.24,0,0,0,.68-6q.16-3.8.16-9.56t-.16-9.56a34.24,34.24,0,0,0-.68-6,5.9,5.9,0,0,0-1.52-3.12,4.52,4.52,0,0,0-5.36,0,5.9,5.9,0,0,0-1.52,3.12,34.24,34.24,0,0,0-.68,6q-.16,3.79-.16,9.56T546.44,502.6Z"/><path class="cls-1" d="M573.24,479.4a24.13,24.13,0,0,1,3.44-9.2A14,14,0,0,1,583,465a28.92,28.92,0,0,1,19.2,0,14,14,0,0,1,6.32,5.2,24.13,24.13,0,0,1,3.44,9.2,90,90,0,0,1,0,27.28,24.13,24.13,0,0,1-3.44,9.2A13.26,13.26,0,0,1,602.2,521a31.08,31.08,0,0,1-19.2,0,13.26,13.26,0,0,1-6.32-5.08,24.13,24.13,0,0,1-3.44-9.2,90,90,0,0,1,0-27.28Zm14.48,23.2a34.24,34.24,0,0,0,.68,6,5.9,5.9,0,0,0,1.52,3.12,4.52,4.52,0,0,0,5.36,0,5.9,5.9,0,0,0,1.52-3.12,34.24,34.24,0,0,0,.68-6q.16-3.8.16-9.56t-.16-9.56a34.24,34.24,0,0,0-.68-6,5.9,5.9,0,0,0-1.52-3.12,4.52,4.52,0,0,0-5.36,0,5.9,5.9,0,0,0-1.52,3.12,34.24,34.24,0,0,0-.68,6q-.16,3.79-.16,9.56T587.72,502.6Z"/><path class="cls-1" d="M631.8,464.48l9.6,35.2h.16v-35.2h13.92V521.6H639.16l-9.92-35.28h-.16V521.6H615.16V464.48Z"/><path class="cls-1" d="M702.12,464.48,716,521.6H700.2l-1.52-10H686.84l-1.52,10h-15.6l13.68-57.12Zm-9.44,11.68L688.6,500.4h8.32l-4.08-24.24Z"/><path class="cls-1" d="M737.56,479.6a8.6,8.6,0,0,0-1-4.36,3.44,3.44,0,0,0-3.2-1.8A4,4,0,0,0,729.8,475a5.8,5.8,0,0,0-1.12,3.48,5.7,5.7,0,0,0,1.8,4.44,16.73,16.73,0,0,0,4.52,2.84q2.71,1.2,5.84,2.44a26.27,26.27,0,0,1,5.84,3.24,16.08,16.08,0,0,1,4.52,5.24,17.3,17.3,0,0,1,1.8,8.44q0,9.12-5.2,13.24t-15,4.12a39.33,39.33,0,0,1-8.2-.76,14.84,14.84,0,0,1-6-2.64,11.81,11.81,0,0,1-3.72-4.92,19.48,19.48,0,0,1-1.28-7.52v-2H728V506q0,3.67,1.36,5.16a4.56,4.56,0,0,0,3.52,1.48,4.23,4.23,0,0,0,3.56-1.6,6.19,6.19,0,0,0,1.24-3.92,5.82,5.82,0,0,0-1.72-4.44,15.21,15.21,0,0,0-4.32-2.8q-2.6-1.15-5.64-2.36a24.61,24.61,0,0,1-5.64-3.12,15.45,15.45,0,0,1-4.32-5,16.81,16.81,0,0,1-1.72-8.16q0-8.71,4.64-13.28T733,463.36q9.76,0,14.12,4.2t4.36,13.4H737.56Z"/><path class="cls-1" d="M804.12,464.48,810,504h.16l4-39.52h14.4l-9.76,57.12H802.44l-5-38.4h-.16l-5,38.4H776l-9.76-57.12h14.4L785.16,504h.16l5.36-39.52Z"/><path class="cls-1" d="M862.68,464.48v12.16h-19v9.76h17.76v11.68H843.72v11.36H863.4V521.6H828.84V464.48Z"/><path class="cls-1" d="M921.72,490.56v31H911.64l-.32-5h-.16a7.92,7.92,0,0,1-2,3,9,9,0,0,1-3,1.8,16.32,16.32,0,0,1-3.52.84,30.06,30.06,0,0,1-3.8.24q-5.69,0-9-1.88a11.8,11.8,0,0,1-5-5.64,28.28,28.28,0,0,1-2.12-9.28q-.45-5.52-.44-12.64a85.4,85.4,0,0,1,.84-12.72,24,24,0,0,1,3.2-9.28,15.07,15.07,0,0,1,6.52-5.72,25.17,25.17,0,0,1,10.72-2,24.27,24.27,0,0,1,7.24,1,14.16,14.16,0,0,1,5.72,3.36,15.89,15.89,0,0,1,3.76,6,25.51,25.51,0,0,1,1.36,8.84h-14.4a20.11,20.11,0,0,0-.8-6.64,3.31,3.31,0,0,0-3.44-2.48,4.46,4.46,0,0,0-2.92.88,5.52,5.52,0,0,0-1.6,3.12,33.31,33.31,0,0,0-.68,6q-.17,3.79-.16,9.56t.16,9.56a33.31,33.31,0,0,0,.68,6,5.83,5.83,0,0,0,1.52,3.12,3.88,3.88,0,0,0,2.68.88,4.54,4.54,0,0,0,2.12-.48,3.82,3.82,0,0,0,1.56-1.8,13.53,13.53,0,0,0,1-3.68,41.38,41.38,0,0,0,.36-6h-5.28V490.56Z"/><path class="cls-1" d="M924,479.4a24.13,24.13,0,0,1,3.44-9.2,14,14,0,0,1,6.32-5.2,28.92,28.92,0,0,1,19.2,0,14,14,0,0,1,6.32,5.2,24.3,24.3,0,0,1,3.44,9.2,90,90,0,0,1,0,27.28,24.3,24.3,0,0,1-3.44,9.2,13.26,13.26,0,0,1-6.32,5.08,31.08,31.08,0,0,1-19.2,0,13.22,13.22,0,0,1-6.32-5.08,24.13,24.13,0,0,1-3.44-9.2,90,90,0,0,1,0-27.28Zm14.48,23.2a33.31,33.31,0,0,0,.68,6,5.83,5.83,0,0,0,1.52,3.12,4.52,4.52,0,0,0,5.36,0,6,6,0,0,0,1.52-3.12,35.22,35.22,0,0,0,.68-6c.1-2.53.16-5.72.16-9.56s-.06-7-.16-9.56a35.22,35.22,0,0,0-.68-6,6,6,0,0,0-1.52-3.12,4.52,4.52,0,0,0-5.36,0,5.83,5.83,0,0,0-1.52,3.12,33.31,33.31,0,0,0-.68,6q-.16,3.79-.16,9.56T938.44,502.6Z"/><path class="cls-2" d="M998,464.48v45h18.32V521.6h-33.2V464.48Z"/><path class="cls-2" d="M1031.24,464.48V521.6h-14.88V464.48Z"/><path class="cls-2" d="M1045.8,464.48l6,43h.16l6-43h15.84l-12.32,57.12h-19.2l-12.08-57.12Z"/><path class="cls-2" d="M1106.92,464.48v12.16h-19v9.76h17.76v11.68H1088v11.36h19.68V521.6h-34.56V464.48Z"/><path class="cls-1" d="M561.4,554.56a8.5,8.5,0,0,0-1-4.36,3.44,3.44,0,0,0-3.2-1.8,4,4,0,0,0-3.52,1.56,5.87,5.87,0,0,0-1.12,3.48,5.7,5.7,0,0,0,1.8,4.44,16.73,16.73,0,0,0,4.52,2.84c1.82.8,3.76,1.61,5.84,2.44a26.27,26.27,0,0,1,5.84,3.24,16,16,0,0,1,4.52,5.24,17.3,17.3,0,0,1,1.8,8.44q0,9.12-5.2,13.24t-15,4.12a39.39,39.39,0,0,1-8.2-.76,14.84,14.84,0,0,1-6-2.64,12,12,0,0,1-3.72-4.92,19.48,19.48,0,0,1-1.28-7.52v-2h14.4V581c0,2.45.46,4.17,1.36,5.16a4.56,4.56,0,0,0,3.52,1.48,4.21,4.21,0,0,0,3.56-1.6,6.19,6.19,0,0,0,1.24-3.92,5.82,5.82,0,0,0-1.72-4.44,14.93,14.93,0,0,0-4.32-2.8q-2.6-1.15-5.64-2.36a25,25,0,0,1-5.64-3.12,15.45,15.45,0,0,1-4.32-5,16.93,16.93,0,0,1-1.72-8.16q0-8.71,4.64-13.28t14.08-4.56q9.76,0,14.12,4.2t4.36,13.4H561.4Z"/><path class="cls-1" d="M593.32,539.44v57.12H578.44V539.44Z"/><path class="cls-1" d="M635,565.52v31H624.92l-.32-5h-.16a7.92,7.92,0,0,1-2,3,9,9,0,0,1-3,1.8,16.18,16.18,0,0,1-3.52.84,29.94,29.94,0,0,1-3.8.24c-3.79,0-6.77-.63-9-1.88a11.8,11.8,0,0,1-5-5.64,28.53,28.53,0,0,1-2.12-9.28q-.44-5.52-.44-12.64a85.4,85.4,0,0,1,.84-12.72,24.2,24.2,0,0,1,3.2-9.28,15.12,15.12,0,0,1,6.52-5.72,25.2,25.2,0,0,1,10.72-2,24.22,24.22,0,0,1,7.24,1,14.09,14.09,0,0,1,5.72,3.36,15.89,15.89,0,0,1,3.76,6,25.27,25.27,0,0,1,1.36,8.84H620.6a20.11,20.11,0,0,0-.8-6.64,3.3,3.3,0,0,0-3.44-2.48,4.46,4.46,0,0,0-2.92.88,5.58,5.58,0,0,0-1.6,3.12,34.24,34.24,0,0,0-.68,6Q611,562.24,611,568t.16,9.56a34.24,34.24,0,0,0,.68,6,5.9,5.9,0,0,0,1.52,3.12,3.9,3.9,0,0,0,2.68.88,4.51,4.51,0,0,0,2.12-.48,3.82,3.82,0,0,0,1.56-1.8,13.18,13.18,0,0,0,1-3.68,41.38,41.38,0,0,0,.36-6H615.8V565.52Z"/><path class="cls-1" d="M654.6,539.44l9.6,35.2h.16v-35.2h13.92v57.12H662L652,561.28h-.16v35.28H638V539.44Z"/><path class="cls-1" d="M714,580.64c0,2.77.4,4.63,1.2,5.56a4.54,4.54,0,0,0,6.56,0c.8-.93,1.2-2.79,1.2-5.56v-41.2H737.8v37.44a33.4,33.4,0,0,1-1.28,10,15.25,15.25,0,0,1-3.72,6.4,12.78,12.78,0,0,1-6,3.28,39.58,39.58,0,0,1-16.6,0,12.77,12.77,0,0,1-6.08-3.28,15.25,15.25,0,0,1-3.72-6.4,33.4,33.4,0,0,1-1.28-10V539.44H714Z"/><path class="cls-1" d="M762.76,539.44a18.24,18.24,0,0,1,7.36,1.36,14.27,14.27,0,0,1,5.16,3.72,15,15,0,0,1,3,5.56,24.09,24.09,0,0,1,1,7q0,8.88-4.76,13.32t-14,4.44h-5.2v21.76H740.44V539.44Zm-4.64,24.64a5.4,5.4,0,0,0,4.28-1.68q1.49-1.68,1.48-5.28,0-7-5.76-7h-2.8v13.92Z"/><path class="cls-1" d="M815.16,539.44l9.6,35.2h.16v-35.2h13.92v57.12H822.52l-9.92-35.28h-.16v35.28H798.52V539.44Z"/><path class="cls-1" d="M842,554.36a24.13,24.13,0,0,1,3.44-9.2,14,14,0,0,1,6.32-5.2,28.92,28.92,0,0,1,19.2,0,14,14,0,0,1,6.32,5.2,24.13,24.13,0,0,1,3.44,9.2,90,90,0,0,1,0,27.28,24.13,24.13,0,0,1-3.44,9.2,13.26,13.26,0,0,1-6.32,5.08,31.08,31.08,0,0,1-19.2,0,13.26,13.26,0,0,1-6.32-5.08,24.13,24.13,0,0,1-3.44-9.2,90,90,0,0,1,0-27.28Zm14.48,23.2a33.31,33.31,0,0,0,.68,6,5.9,5.9,0,0,0,1.52,3.12,4.52,4.52,0,0,0,5.36,0,5.9,5.9,0,0,0,1.52-3.12,34.24,34.24,0,0,0,.68-6q.16-3.79.16-9.56t-.16-9.56a34.24,34.24,0,0,0-.68-6,5.9,5.9,0,0,0-1.52-3.12,4.52,4.52,0,0,0-5.36,0,5.9,5.9,0,0,0-1.52,3.12,33.31,33.31,0,0,0-.68,6q-.16,3.79-.16,9.56T856.52,577.56Z"/><path class="cls-1" d="M918.28,539.44,924.12,579h.16l4-39.52h14.4l-9.76,57.12H916.6l-5-38.4h-.16l-5,38.4H890.2l-9.76-57.12h14.4L899.32,579h.16l5.36-39.52Z"/><path class="cls-1" d="M945.08,539.44H959v19.12L957.32,580H946.6l-1.52-21.44Zm13.76,44.48v12.64H945.4V583.92Z"/><path class="cls-3" d="M1123,481a11,11,0,1,0-11-11,11,11,0,0,0,11,11"/></svg>