<svg id="text1" xmlns="http://www.w3.org/2000/svg" viewBox="0 0 2000 2000"><path d="M1114.28,1034.53q-2.41-13.1-8-21.35a32.53,32.53,0,0,0-14.67-12.07q-9.11-3.81-22.28-3.81t-22.28,3.81a32.43,32.43,0,0,0-14.67,12.07q-5.57,8.27-8,21.35a208.24,208.24,0,0,0,0,63.31q2.4,13.1,8,21.36a30.69,30.69,0,0,0,14.67,11.79q9.09,3.52,22.28,3.52t22.28-3.52a30.79,30.79,0,0,0,14.67-11.79q5.57-8.27,8-21.36a209.1,209.1,0,0,0,0-63.31Zm-33.61,53.85a80.07,80.07,0,0,1-1.57,14q-1.21,5.2-3.53,7.24a10.46,10.46,0,0,1-12.44,0q-2.33-2-3.53-7.24a79,79,0,0,1-1.58-14q-.37-8.82-.37-22.19T1058,1044a79.22,79.22,0,0,1,1.58-14c.8-3.46,2-5.88,3.53-7.24a10.5,10.5,0,0,1,12.44,0c1.54,1.36,2.72,3.78,3.53,7.24a80.33,80.33,0,0,1,1.57,14q.38,8.82.37,22.19T1080.67,1088.38Z"/><path d="M1040.76,883.3a7.79,7.79,0,0,0-6.5-3.16,9.7,9.7,0,0,0-3.53.65,7.17,7.17,0,0,0-3.06,2.51,14.47,14.47,0,0,0-2.23,5.29,39.16,39.16,0,0,0-.84,9v5.57H992.29a103,103,0,0,1,1.86-18.29,32.86,32.86,0,0,1,6.31-14.11,29.45,29.45,0,0,1,13-9q8.35-3.15,21.91-3.15,13,0,21.17,2.78a31.78,31.78,0,0,1,12.9,7.71,26.08,26.08,0,0,1,6.5,11.41,52.89,52.89,0,0,1,1.76,13.93q0,13.37-4.45,22.47a61.83,61.83,0,0,1-11.88,16.52l-20.43,19.87c-1.48,1.48-3.13,3.15-4.92,5a14.67,14.67,0,0,0-3.62,5.76h45.3v26H991.18a81.29,81.29,0,0,1,4.18-26.27q4.17-12.35,15.5-24l23-23.39a34.92,34.92,0,0,0,7.15-9.56q2.15-4.54,2.14-12Q1043.17,886.46,1040.76,883.3ZM925.08,879a80,80,0,0,0,13.74-1,30.53,30.53,0,0,0,9.84-3.34,19.26,19.26,0,0,0,6.69-6.32,36.73,36.73,0,0,0,4.27-9.74H984.5V990.06H950V900.57H925.08Zm-48.65,150.21h-26v103.23H815.91V1029.24H790.28V999.9h86.15Zm88.2,103.23-11.51-89.12h-.38l-11.51,89.12H903.36L880.7,999.9h33.42l10.4,91.72h.37l12.44-91.72h31.2l13.55,91.72h.37l9.29-91.72h33.42l-22.65,132.57Zm320.84,0-20.24-46.23-7.24,11.14v35.09h-34.54V999.9H1258v50.88h.37L1284,999.9h36.77l-33.42,57.93,37.5,74.64Zm113.26-7.52q-12.07,9.57-34.91,9.56a91.53,91.53,0,0,1-19-1.76,34,34,0,0,1-13.92-6.13,27.54,27.54,0,0,1-8.64-11.41q-3-7.07-3-17.46v-4.64h33.42v3.16q0,8.54,3.16,12a10.59,10.59,0,0,0,8.17,3.44,9.82,9.82,0,0,0,8.26-3.72,14.36,14.36,0,0,0,2.88-9.09q0-6.51-4-10.31a35.53,35.53,0,0,0-10-6.5q-6-2.68-13.09-5.48a57,57,0,0,1-13.09-7.24,35.75,35.75,0,0,1-10-11.69q-4-7.25-4-18.94,0-20.24,10.77-30.82t32.68-10.59q22.65,0,32.77,9.75t10.12,31.1H1375V1035a19.86,19.86,0,0,0-2.41-10.11,8,8,0,0,0-7.43-4.18c-3.71,0-6.44,1.2-8.17,3.62a13.53,13.53,0,0,0-2.6,8.08,13.27,13.27,0,0,0,4.18,10.3,38.58,38.58,0,0,0,10.49,6.59q6.32,2.79,13.56,5.66a61.34,61.34,0,0,1,13.55,7.52,37.36,37.36,0,0,1,10.49,12.17q4.17,7.52,4.18,19.58Q1410.8,1115.38,1398.73,1125Z"/><path d="M1215.29,1128.67c-.5-.68-1-1.4-1.49-2.14a12.23,12.23,0,0,1-.93-3.15,42.36,42.36,0,0,1-.55-4.55c-.13-1.68-.19-3.44-.19-5.3v-16.71q0-13.36-4.64-21t-17.08-8.72v-.38q11.88-1.85,17.26-10t5.39-21.54a48.91,48.91,0,0,0-2-14.11,28.4,28.4,0,0,0-6.31-11.23,28.85,28.85,0,0,0-11.33-7.34,48.22,48.22,0,0,0-16.8-2.6h-54v132.57h34.53v-53.1h9.1a14.52,14.52,0,0,1,5.29.84,7.35,7.35,0,0,1,3.53,3,14.65,14.65,0,0,1,2,5.85,64.53,64.53,0,0,1,.55,9.28v8.91c0,1.36,0,3.13.1,5.29s.18,4.43.37,6.78a65.62,65.62,0,0,0,.93,7.06,22.69,22.69,0,0,0,2,6.12h36.76v-1.85A7.34,7.34,0,0,1,1215.29,1128.67ZM1175,1051.61q-3.54,4.37-11,4.37h-6.87v-31.2h6.68q7.8,0,11.24,3.53t3.43,11.88Q1178.52,1047.26,1175,1051.61Z"/><path d="M788.61,1128.67c-.49-.68-1-1.4-1.48-2.14a12.23,12.23,0,0,1-.93-3.15,42.23,42.23,0,0,1-.56-4.55c-.12-1.68-.18-3.44-.18-5.3v-16.71q0-13.36-4.64-21t-17.09-8.72v-.38q11.88-1.85,17.27-10t5.39-21.54a48.91,48.91,0,0,0-1.95-14.11,28.3,28.3,0,0,0-6.32-11.23,28.81,28.81,0,0,0-11.32-7.34A48.28,48.28,0,0,0,750,999.9H696v132.57H730.5v-53.1h9.1a14.56,14.56,0,0,1,5.29.84,7.35,7.35,0,0,1,3.53,3,15,15,0,0,1,2,5.85,64.53,64.53,0,0,1,.55,9.28v8.91c0,1.36,0,3.13.1,5.29s.18,4.43.37,6.78a68.2,68.2,0,0,0,.92,7.06,23.41,23.41,0,0,0,2,6.12H791v-1.85A7.39,7.39,0,0,1,788.61,1128.67Zm-40.29-77.06q-3.52,4.37-11,4.37H730.5v-31.2h6.68q7.8,0,11.24,3.53t3.43,11.88Q751.85,1047.26,748.32,1051.61Z"/><path d="M658.83,999.9H615.38l-31.75,132.57h36.21l3.52-23.21h27.48l3.53,23.21h36.77Zm-31.38,83.37,9.47-56.26h.37l9.47,56.26Z"/></svg>