<svg id="text2" xmlns="http://www.w3.org/2000/svg" viewBox="0 0 2000 2000"><path d="M950,900.57H925.08V879a79.91,79.91,0,0,0,13.74-1,30.77,30.77,0,0,0,9.84-3.34,19.26,19.26,0,0,0,6.69-6.32,36.73,36.73,0,0,0,4.27-9.74H984.5V990.06H950Z"/><path d="M994.15,884.88a32.86,32.86,0,0,1,6.31-14.11,29.45,29.45,0,0,1,13-9q8.35-3.15,21.91-3.15,13,0,21.17,2.78a31.78,31.78,0,0,1,12.9,7.71,26.08,26.08,0,0,1,6.5,11.41,52.89,52.89,0,0,1,1.76,13.93q0,13.37-4.45,22.47a61.83,61.83,0,0,1-11.88,16.52l-20.43,19.87c-1.48,1.48-3.13,3.16-4.92,5a14.78,14.78,0,0,0-3.62,5.76h45.3v26H991.18a81.29,81.29,0,0,1,4.18-26.27q4.17-12.35,15.5-24l23-23.39a35.07,35.07,0,0,0,7.14-9.56q2.15-4.54,2.14-12,0-8.35-2.41-11.51a7.78,7.78,0,0,0-6.5-3.16,9.7,9.7,0,0,0-3.53.65,7.17,7.17,0,0,0-3.06,2.51,14.64,14.64,0,0,0-2.23,5.29,39.16,39.16,0,0,0-.84,9v5.57H992.29A103,103,0,0,1,994.15,884.88Z"/><path d="M767.08,999.9l32.3,132.57H762.62l-3.53-23.21H731.61l-3.53,23.21h-36.2L723.63,999.9ZM745.17,1027l-9.47,56.26H755L745.54,1027Z"/><path d="M858.24,999.9a48.22,48.22,0,0,1,16.8,2.6,28.78,28.78,0,0,1,11.33,7.34,28.28,28.28,0,0,1,6.31,11.23,48.91,48.91,0,0,1,2,14.11q0,13.36-5.38,21.54t-17.27,10v.38q12.43,1.11,17.08,8.72t4.65,21v16.71c0,1.86.06,3.62.18,5.3a42.23,42.23,0,0,0,.56,4.55,11.48,11.48,0,0,0,.93,3.15c.49.74,1,1.46,1.48,2.14a7.28,7.28,0,0,0,2.42,1.95v1.85H862.51a22.69,22.69,0,0,1-2-6.12,71.08,71.08,0,0,1-.93-7.06c-.18-2.35-.31-4.61-.37-6.78s-.09-3.93-.09-5.29v-8.91a64.35,64.35,0,0,0-.56-9.28,14.65,14.65,0,0,0-2-5.85,7.33,7.33,0,0,0-3.52-3,14.58,14.58,0,0,0-5.3-.84h-9.09v53.1H804.21V999.9ZM845.62,1056c4.94,0,8.6-1.46,11-4.37s3.53-6.71,3.53-11.42q0-8.36-3.44-11.88t-11.23-3.53h-6.68V1056Z"/><path d="M898.53,1029.24V999.9h86.15v29.34h-26v103.23H924.15V1029.24Z"/><path d="M1025.71,999.9v132.57H991.18V999.9Z"/><path d="M1087.73,1035a19.86,19.86,0,0,0-2.42-10.11,8,8,0,0,0-7.42-4.18c-3.72,0-6.44,1.2-8.17,3.62a13.46,13.46,0,0,0-2.6,8.08q0,6.49,4.18,10.3a38.43,38.43,0,0,0,10.49,6.59q6.3,2.79,13.55,5.66a60.89,60.89,0,0,1,13.55,7.52,37.24,37.24,0,0,1,10.49,12.17q4.18,7.52,4.18,19.58,0,21.16-12.07,30.73t-34.9,9.56a91.47,91.47,0,0,1-19-1.76,34.09,34.09,0,0,1-13.93-6.13,27.52,27.52,0,0,1-8.63-11.41q-3-7.07-3-17.46v-4.64h33.42v3.16q0,8.54,3.15,12a10.6,10.6,0,0,0,8.17,3.44A9.84,9.84,0,0,0,1085,1108a14.42,14.42,0,0,0,2.87-9.09q0-6.51-4-10.31a35.33,35.33,0,0,0-10-6.5q-6-2.68-13.09-5.48a57,57,0,0,1-13.09-7.24,35.64,35.64,0,0,1-10-11.69q-4-7.25-4-18.94,0-20.24,10.77-30.82t32.67-10.59q22.66,0,32.78,9.75t10.12,31.1h-32.31Z"/><path d="M1123.19,1029.24V999.9h86.15v29.34h-26v103.23h-34.54V1029.24Z"/><path d="M1267.08,1035a19.86,19.86,0,0,0-2.41-10.11,8,8,0,0,0-7.43-4.18c-3.71,0-6.44,1.2-8.17,3.62a13.53,13.53,0,0,0-2.6,8.08,13.27,13.27,0,0,0,4.18,10.3,38.58,38.58,0,0,0,10.49,6.59q6.31,2.79,13.56,5.66a61.34,61.34,0,0,1,13.55,7.52,37.24,37.24,0,0,1,10.49,12.17q4.18,7.52,4.18,19.58,0,21.16-12.07,30.73t-34.91,9.56a91.53,91.53,0,0,1-19-1.76,34,34,0,0,1-13.92-6.13,27.54,27.54,0,0,1-8.64-11.41q-3-7.07-3-17.46v-4.64h33.42v3.16q0,8.54,3.16,12a10.59,10.59,0,0,0,8.17,3.44,9.82,9.82,0,0,0,8.26-3.72,14.36,14.36,0,0,0,2.88-9.09q0-6.51-4-10.31a35.53,35.53,0,0,0-10-6.5q-6-2.68-13.09-5.48a57.22,57.22,0,0,1-13.09-7.24,35.87,35.87,0,0,1-10-11.69q-4-7.25-4-18.94,0-20.24,10.77-30.82t32.68-10.59q22.65,0,32.77,9.75t10.12,31.1h-32.31Z"/></svg>