<svg id="text4" xmlns="http://www.w3.org/2000/svg" viewBox="0 0 2000 2000"><path d="M976.41,811.88V941.52q0,60.59-10.08,88.38-12.63,34.51-53.08,67.33c-5.56,4.52-11.65,9.69-18.09,15.58s-13.56,11.93-21.44,18.08q58.88,65.67,143.91,74.94v-431ZM1250,1140.18Q1154.86,1290,1002.5,1290q-106,0-179.27-78.27-73.28-79.11-73.23-186,0-87.5,48-159.92A320.15,320.15,0,0,1,853.1,803.9q31.56-27.37,72.82-48.43l7.53,8.42Q878,811.88,851,853.12q-33.71,51.36-33.63,114.5,0,81.63,45.4,148.14c14.61-10.1,23.84-23,27.82-38.75,2.2-8.38,3.36-24.38,3.36-47.94V849.76L1058.06,710q86.73,45.42,178.44,45.39l-76.58,71.44q-58.07-9.24-123.72-41.19v420.18q111.08,1.7,204.55-75.76v-.86Z"/></svg>