<svg id="text3" xmlns="http://www.w3.org/2000/svg" viewBox="0 0 2000 2000"><path d="M950,900.57H925.08V879a79.91,79.91,0,0,0,13.74-1,30.77,30.77,0,0,0,9.84-3.34,19.26,19.26,0,0,0,6.69-6.32,36.73,36.73,0,0,0,4.27-9.74H984.5V990.06H950Z"/><path d="M994.15,884.88a32.86,32.86,0,0,1,6.31-14.11,29.45,29.45,0,0,1,13-9q8.35-3.15,21.91-3.15,13,0,21.17,2.78a31.78,31.78,0,0,1,12.9,7.71,26.08,26.08,0,0,1,6.5,11.41,52.89,52.89,0,0,1,1.76,13.93q0,13.37-4.45,22.47a61.83,61.83,0,0,1-11.88,16.52l-20.43,19.87c-1.48,1.48-3.13,3.16-4.92,5a14.78,14.78,0,0,0-3.62,5.76h45.3v26H991.18a81.29,81.29,0,0,1,4.18-26.27q4.17-12.35,15.5-24l23-23.39a35.07,35.07,0,0,0,7.14-9.56q2.15-4.54,2.14-12,0-8.35-2.41-11.51a7.78,7.78,0,0,0-6.5-3.16,9.7,9.7,0,0,0-3.53.65,7.17,7.17,0,0,0-3.06,2.51,14.64,14.64,0,0,0-2.23,5.29,39.16,39.16,0,0,0-.84,9v5.57H992.29A103,103,0,0,1,994.15,884.88Z"/><path d="M744.05,999.9,758,1078.44h.37l13.93-78.54h49.39v132.57H789.36V1033.7H789l-18.39,98.77H745.72l-18.38-98.77H727v98.77h-32.3V999.9Z"/><path d="M830.58,1034.53q2.4-13.1,8-21.35a32.43,32.43,0,0,1,14.67-12.07q9.09-3.81,22.28-3.81t22.28,3.81a32.53,32.53,0,0,1,14.67,12.07q5.56,8.27,8,21.35a208.24,208.24,0,0,1,0,63.31q-2.41,13.1-8,21.36A30.79,30.79,0,0,1,897.79,1131q-9.1,3.52-22.28,3.52T853.23,1131a30.69,30.69,0,0,1-14.67-11.79q-5.56-8.27-8-21.36a208.24,208.24,0,0,1,0-63.31Zm33.6,53.85a79,79,0,0,0,1.58,14q1.2,5.2,3.53,7.24a10.46,10.46,0,0,0,12.44,0q2.31-2,3.53-7.24a80.07,80.07,0,0,0,1.57-14q.38-8.82.38-22.19t-.38-22.19a80.33,80.33,0,0,0-1.57-14c-.81-3.46-2-5.88-3.53-7.24a10.5,10.5,0,0,0-12.44,0c-1.55,1.36-2.73,3.78-3.53,7.24a79.22,79.22,0,0,0-1.58,14q-.37,8.82-.37,22.19T864.18,1088.38Z"/><path d="M967.42,999.9l22.28,81.7h.37V999.9h32.31v132.57H984.5l-23-81.88h-.37v81.88H928.8V999.9Z"/><path d="M1028.69,1029.24V999.9h86.15v29.34h-26v103.23h-34.54V1029.24Z"/><path d="M1155.5,999.9v48.65h21.17V999.9h34.53v132.57h-34.53v-54.59H1155.5v54.59H1121V999.9Z"/><path d="M1272.84,1035a19.86,19.86,0,0,0-2.41-10.11,8,8,0,0,0-7.43-4.18c-3.71,0-6.44,1.2-8.17,3.62a13.53,13.53,0,0,0-2.6,8.08,13.27,13.27,0,0,0,4.18,10.3,38.58,38.58,0,0,0,10.49,6.59q6.31,2.79,13.56,5.66a61.34,61.34,0,0,1,13.55,7.52,37.36,37.36,0,0,1,10.49,12.17q4.18,7.52,4.18,19.58,0,21.16-12.07,30.73t-34.91,9.56a91.53,91.53,0,0,1-19-1.76,34,34,0,0,1-13.92-6.13,27.54,27.54,0,0,1-8.64-11.41q-3-7.07-3-17.46v-4.64h33.42v3.16q0,8.54,3.16,12a10.59,10.59,0,0,0,8.17,3.44,9.82,9.82,0,0,0,8.26-3.72,14.36,14.36,0,0,0,2.88-9.09q0-6.51-4-10.31a35.53,35.53,0,0,0-10-6.5q-6-2.68-13.09-5.48a57,57,0,0,1-13.09-7.24,35.75,35.75,0,0,1-10-11.69q-4-7.25-4-18.94,0-20.24,10.77-30.82t32.68-10.59q22.65,0,32.77,9.75t10.12,31.1h-32.31Z"/></svg>