<svg id="thanks" xmlns="http://www.w3.org/2000/svg" viewBox="0 0 1500 1000"><defs><style>.cls-1{fill:#fff;}</style></defs><path class="cls-1" d="M362,402.16V389.52h37.12v12.64h-11.2v44.48H373V402.16Z"/><path class="cls-1" d="M417.32,389.52v21h9.12v-21h14.88v57.12H426.44V423.12h-9.12v23.52H402.44V389.52Z"/><path class="cls-1" d="M475.72,389.52l13.92,57.12H473.8l-1.52-10H460.44l-1.52,10h-15.6L457,389.52Zm-9.44,11.68-4.08,24.24h8.32l-4.08-24.24Z"/><path class="cls-1" d="M508,389.52l9.6,35.2h.16v-35.2h13.92v57.12H515.4l-9.92-35.28h-.16v35.28H491.4V389.52Z"/><path class="cls-1" d="M550.36,389.52v21.92h.16l11-21.92H577.4l-14.4,25,16.16,32.16h-17l-8.72-19.92-3.12,4.8v15.12H535.48V389.52Z"/><path class="cls-1" d="M601.56,404.64a8.6,8.6,0,0,0-1-4.36,3.44,3.44,0,0,0-3.2-1.8A4,4,0,0,0,593.8,400a5.8,5.8,0,0,0-1.12,3.48,5.7,5.7,0,0,0,1.8,4.44A16.73,16.73,0,0,0,599,410.8q2.71,1.2,5.84,2.44a26.27,26.27,0,0,1,5.84,3.24,16.08,16.08,0,0,1,4.52,5.24,17.3,17.3,0,0,1,1.8,8.44q0,9.12-5.2,13.24t-15,4.12a39.33,39.33,0,0,1-8.2-.76,14.84,14.84,0,0,1-6-2.64,11.81,11.81,0,0,1-3.72-4.92,19.48,19.48,0,0,1-1.28-7.52v-2H592V431q0,3.68,1.36,5.16a4.56,4.56,0,0,0,3.52,1.48,4.23,4.23,0,0,0,3.56-1.6,6.19,6.19,0,0,0,1.24-3.92,5.82,5.82,0,0,0-1.72-4.44,15.21,15.21,0,0,0-4.32-2.8q-2.6-1.16-5.64-2.36a24.61,24.61,0,0,1-5.64-3.12,15.45,15.45,0,0,1-4.32-5,16.81,16.81,0,0,1-1.72-8.16q0-8.72,4.64-13.28T597,388.4q9.76,0,14.12,4.2t4.36,13.4H601.56Z"/><path class="cls-1" d="M620,389.52h13.92v19.12l-1.68,21.44H621.48L620,408.64ZM633.72,434v12.64H620.28V434Z"/><path class="cls-1" d="M649.72,389.52H665.8l5.6,19.92h.16l5.6-19.92h16.32l-14.56,34.64v22.48H664V424.16Z"/><path class="cls-1" d="M691,404.44a24.13,24.13,0,0,1,3.44-9.2,14,14,0,0,1,6.32-5.2,28.92,28.92,0,0,1,19.2,0,14,14,0,0,1,6.32,5.2,24.3,24.3,0,0,1,3.44,9.2,90,90,0,0,1,0,27.28,24.3,24.3,0,0,1-3.44,9.2A13.26,13.26,0,0,1,720,446a31.08,31.08,0,0,1-19.2,0,13.22,13.22,0,0,1-6.32-5.08,24.13,24.13,0,0,1-3.44-9.2,90,90,0,0,1,0-27.28Zm14.48,23.2a33.31,33.31,0,0,0,.68,6,5.83,5.83,0,0,0,1.52,3.12,4.52,4.52,0,0,0,5.36,0,6,6,0,0,0,1.52-3.12,35.22,35.22,0,0,0,.68-6c.1-2.53.16-5.72.16-9.56s-.06-7-.16-9.56a35.22,35.22,0,0,0-.68-6,6,6,0,0,0-1.52-3.12,4.52,4.52,0,0,0-5.36,0,5.83,5.83,0,0,0-1.52,3.12,33.31,33.31,0,0,0-.68,6q-.16,3.8-.16,9.56T705.48,427.64Z"/><path class="cls-1" d="M748.36,430.72c0,2.77.4,4.63,1.2,5.56a4.54,4.54,0,0,0,6.56,0c.8-.93,1.2-2.79,1.2-5.56v-41.2H772.2V427a33.4,33.4,0,0,1-1.28,10,15.47,15.47,0,0,1-3.72,6.4,12.78,12.78,0,0,1-6,3.28,39.58,39.58,0,0,1-16.6,0,12.72,12.72,0,0,1-6.08-3.28,15.25,15.25,0,0,1-3.72-6.4,33.08,33.08,0,0,1-1.28-10V389.52h14.88Z"/><path class="cls-1" d="M787.08,389.52v29.92h-11.2V389.52Z"/><path class="cls-1" d="M814,389.52a20.71,20.71,0,0,1,7.24,1.12,12.48,12.48,0,0,1,4.88,3.16,12.23,12.23,0,0,1,2.72,4.84,21.07,21.07,0,0,1,.84,6.08,16.68,16.68,0,0,1-2.32,9.28q-2.33,3.53-7.44,4.32v.16q5.36.48,7.36,3.76t2,9v7.2c0,.8,0,1.56.08,2.28a17.23,17.23,0,0,0,.24,2,5,5,0,0,0,.4,1.36c.21.32.42.63.64.92a3.21,3.21,0,0,0,1,.84v.8H815.8A9.52,9.52,0,0,1,815,444a28.76,28.76,0,0,1-.4-3c-.08-1-.14-2-.16-2.92s0-1.69,0-2.28v-3.84a27.73,27.73,0,0,0-.24-4,6.31,6.31,0,0,0-.84-2.52,3.22,3.22,0,0,0-1.52-1.28,6.34,6.34,0,0,0-2.28-.36h-3.92v22.88H790.68V389.52Zm-5.44,24.16a5.73,5.73,0,0,0,4.72-1.88,7.59,7.59,0,0,0,1.52-4.92c0-2.4-.5-4.11-1.48-5.12s-2.6-1.52-4.84-1.52h-2.88v13.44Z"/><path class="cls-1" d="M868.12,389.52v12.16h-19v9.76h17.76v11.68H849.16v11.36h19.68v12.16H834.28V389.52Z"/><path class="cls-1" d="M905.4,389.52l9.6,35.2h.16v-35.2h13.92v57.12H912.76l-9.92-35.28h-.16v35.28H888.76V389.52Z"/><path class="cls-1" d="M933.08,404.44a24.13,24.13,0,0,1,3.44-9.2,14,14,0,0,1,6.32-5.2,28.92,28.92,0,0,1,19.2,0,14,14,0,0,1,6.32,5.2,24.3,24.3,0,0,1,3.44,9.2,90,90,0,0,1,0,27.28,24.3,24.3,0,0,1-3.44,9.2A13.26,13.26,0,0,1,962,446a31.08,31.08,0,0,1-19.2,0,13.22,13.22,0,0,1-6.32-5.08,24.13,24.13,0,0,1-3.44-9.2,90,90,0,0,1,0-27.28Zm14.48,23.2a33.31,33.31,0,0,0,.68,6,5.83,5.83,0,0,0,1.52,3.12,4.52,4.52,0,0,0,5.36,0,6,6,0,0,0,1.52-3.12,35.22,35.22,0,0,0,.68-6c.1-2.53.16-5.72.16-9.56s-.06-7-.16-9.56a35.22,35.22,0,0,0-.68-6,6,6,0,0,0-1.52-3.12,4.52,4.52,0,0,0-5.36,0,5.83,5.83,0,0,0-1.52,3.12,33.31,33.31,0,0,0-.68,6q-.16,3.8-.16,9.56T947.56,427.64Z"/><path class="cls-1" d="M1010.2,389.52,1016,429h.16l4-39.52h14.4l-9.76,57.12h-16.32l-5-38.4h-.16l-5,38.4H982.12l-9.76-57.12h14.4L991.24,429h.16l5.36-39.52Z"/><path class="cls-1" d="M1052.36,404.44a24.13,24.13,0,0,1,3.44-9.2,14,14,0,0,1,6.32-5.2,28.92,28.92,0,0,1,19.2,0,14,14,0,0,1,6.32,5.2,24.3,24.3,0,0,1,3.44,9.2,90,90,0,0,1,0,27.28,24.3,24.3,0,0,1-3.44,9.2,13.26,13.26,0,0,1-6.32,5.08,31.08,31.08,0,0,1-19.2,0,13.22,13.22,0,0,1-6.32-5.08,24.13,24.13,0,0,1-3.44-9.2,90,90,0,0,1,0-27.28Zm14.48,23.2a33.31,33.31,0,0,0,.68,6,5.83,5.83,0,0,0,1.52,3.12,4.52,4.52,0,0,0,5.36,0,6,6,0,0,0,1.52-3.12,35.22,35.22,0,0,0,.68-6c.1-2.53.16-5.72.16-9.56s-.06-7-.16-9.56a35.22,35.22,0,0,0-.68-6,6,6,0,0,0-1.52-3.12,4.52,4.52,0,0,0-5.36,0,5.83,5.83,0,0,0-1.52,3.12,33.31,33.31,0,0,0-.68,6q-.16,3.8-.16,9.56T1066.84,427.64Z"/><path class="cls-1" d="M1111.72,389.52l9.6,35.2h.16v-35.2h13.92v57.12h-16.32l-9.92-35.28H1109v35.28h-13.92V389.52Z"/><path class="cls-1" d="M311.32,479.4a24.3,24.3,0,0,1,3.44-9.2,14,14,0,0,1,6.32-5.2,28.92,28.92,0,0,1,19.2,0,14,14,0,0,1,6.32,5.2,24.13,24.13,0,0,1,3.44,9.2,90,90,0,0,1,0,27.28,24.13,24.13,0,0,1-3.44,9.2,13.22,13.22,0,0,1-6.32,5.08,31.08,31.08,0,0,1-19.2,0,13.26,13.26,0,0,1-6.32-5.08,24.3,24.3,0,0,1-3.44-9.2,90,90,0,0,1,0-27.28Zm14.48,23.2a35.22,35.22,0,0,0,.68,6,6,6,0,0,0,1.52,3.12,4.52,4.52,0,0,0,5.36,0,5.83,5.83,0,0,0,1.52-3.12,33.31,33.31,0,0,0,.68-6q.17-3.8.16-9.56t-.16-9.56a33.31,33.31,0,0,0-.68-6,5.83,5.83,0,0,0-1.52-3.12,4.52,4.52,0,0,0-5.36,0,6,6,0,0,0-1.52,3.12,35.22,35.22,0,0,0-.68,6c-.1,2.53-.16,5.72-.16,9.56S325.7,500.07,325.8,502.6Z"/><path class="cls-1" d="M368.68,505.68c0,2.77.4,4.63,1.2,5.56a4.54,4.54,0,0,0,6.56,0c.8-.93,1.2-2.79,1.2-5.56v-41.2h14.88v37.44a33.08,33.08,0,0,1-1.28,10,15.25,15.25,0,0,1-3.72,6.4,12.73,12.73,0,0,1-6,3.28,39.58,39.58,0,0,1-16.6,0,12.82,12.82,0,0,1-6.08-3.28,15.47,15.47,0,0,1-3.72-6.4,33.4,33.4,0,0,1-1.28-10V464.48h14.88Z"/><path class="cls-1" d="M419.48,464.48a20.67,20.67,0,0,1,7.24,1.12,12.41,12.41,0,0,1,4.88,3.16,12.11,12.11,0,0,1,2.72,4.84,21.07,21.07,0,0,1,.84,6.08,16.59,16.59,0,0,1-2.32,9.28q-2.31,3.53-7.44,4.32v.16q5.37.48,7.36,3.76c1.34,2.19,2,5.2,2,9v7.2c0,.8,0,1.56.08,2.28s.14,1.37.24,2a5.33,5.33,0,0,0,.4,1.36c.22.32.43.63.64.92a3.33,3.33,0,0,0,1,.84v.8H421.32a10.24,10.24,0,0,1-.84-2.64c-.18-1-.32-2-.4-3s-.13-2-.16-2.92,0-1.69,0-2.28v-3.84a27.73,27.73,0,0,0-.24-4,6.31,6.31,0,0,0-.84-2.52,3.18,3.18,0,0,0-1.52-1.28,6.27,6.27,0,0,0-2.28-.36h-3.92V521.6H396.2V464.48ZM414,488.64a5.71,5.71,0,0,0,4.72-1.88,7.53,7.53,0,0,0,1.52-4.92q0-3.6-1.48-5.12c-1-1-2.6-1.52-4.84-1.52h-2.88v13.44Z"/><path class="cls-1" d="M464.84,464.48l6,43H471l6-43h15.84L480.52,521.6h-19.2l-12.08-57.12Z"/><path class="cls-1" d="M510,464.48V521.6H495.08V464.48Z"/><path class="cls-1" d="M536.6,464.48a18.24,18.24,0,0,1,7.36,1.36,14.27,14.27,0,0,1,5.16,3.72,15,15,0,0,1,3,5.56,24.09,24.09,0,0,1,1,7q0,8.88-4.76,13.32t-14,4.44h-5.2V521.6H514.28V464.48ZM532,489.12a5.4,5.4,0,0,0,4.28-1.68q1.49-1.68,1.48-5.28,0-7-5.76-7h-2.8v13.92Z"/><path class="cls-1" d="M587.16,464.48v45h18.32V521.6h-33.2V464.48Z"/><path class="cls-1" d="M624.44,464.48V521.6H609.56V464.48Z"/><path class="cls-1" d="M651.56,479.6a8.6,8.6,0,0,0-1-4.36,3.44,3.44,0,0,0-3.2-1.8A4,4,0,0,0,643.8,475a5.8,5.8,0,0,0-1.12,3.48,5.7,5.7,0,0,0,1.8,4.44,16.73,16.73,0,0,0,4.52,2.84q2.71,1.2,5.84,2.44a26.27,26.27,0,0,1,5.84,3.24,16.08,16.08,0,0,1,4.52,5.24,17.3,17.3,0,0,1,1.8,8.44q0,9.12-5.2,13.24t-15,4.12a39.33,39.33,0,0,1-8.2-.76,14.84,14.84,0,0,1-6-2.64,11.81,11.81,0,0,1-3.72-4.92,19.48,19.48,0,0,1-1.28-7.52v-2H642V506q0,3.67,1.36,5.16a4.54,4.54,0,0,0,3.52,1.48,4.24,4.24,0,0,0,3.56-1.6,6.25,6.25,0,0,0,1.24-3.92,5.82,5.82,0,0,0-1.72-4.44,15.21,15.21,0,0,0-4.32-2.8q-2.6-1.15-5.64-2.36a24.61,24.61,0,0,1-5.64-3.12,15.34,15.34,0,0,1-4.32-5,16.81,16.81,0,0,1-1.72-8.16q0-8.71,4.64-13.28T647,463.36q9.75,0,14.12,4.2t4.36,13.4H651.56Z"/><path class="cls-1" d="M666.84,477.12V464.48H704v12.64h-11.2V521.6H677.88V477.12Z"/><path class="cls-1" d="M712,505.76V521.6H698.6V505.76Z"/><path class="cls-1" d="M754.44,464.48l6,33.84h.16l6-33.84h21.28V521.6H774V479h-.16l-7.92,42.56H755.16L747.24,479h-.16V521.6H733.16V464.48Z"/><path class="cls-1" d="M822.44,464.48l13.92,57.12H820.52l-1.52-10H807.16l-1.52,10H790l13.68-57.12ZM813,476.16l-4.08,24.24h8.32l-4.08-24.24Z"/><path class="cls-1" d="M853.16,464.48V486.4h.16l11-21.92H880.2l-14.4,25L882,521.6H865l-8.72-19.92-3.12,4.8V521.6H838.28V464.48Z"/><path class="cls-1" d="M918,464.48v12.16H899v9.76h17.76v11.68H899v11.36h19.68V521.6H884.12V464.48Z"/><path class="cls-1" d="M960.75,479.6a8.5,8.5,0,0,0-1-4.36,3.43,3.43,0,0,0-3.2-1.8A4,4,0,0,0,953,475a5.8,5.8,0,0,0-1.12,3.48,5.73,5.73,0,0,0,1.79,4.44,16.79,16.79,0,0,0,4.53,2.84q2.71,1.2,5.84,2.44a26.5,26.5,0,0,1,5.84,3.24,16.08,16.08,0,0,1,4.52,5.24,17.41,17.41,0,0,1,1.8,8.44q0,9.12-5.2,13.24t-15,4.12a39.43,39.43,0,0,1-8.21-.76,14.84,14.84,0,0,1-6-2.64,11.87,11.87,0,0,1-3.71-4.92,19.29,19.29,0,0,1-1.29-7.52v-2h14.41V506q0,3.67,1.35,5.16a4.56,4.56,0,0,0,3.53,1.48,4.21,4.21,0,0,0,3.55-1.6,6.19,6.19,0,0,0,1.24-3.92,5.85,5.85,0,0,0-1.71-4.44,15.12,15.12,0,0,0-4.33-2.8q-2.6-1.15-5.63-2.36a24.88,24.88,0,0,1-5.65-3.12,15.31,15.31,0,0,1-4.31-5,16.81,16.81,0,0,1-1.72-8.16q0-8.71,4.64-13.28t14.08-4.56q9.75,0,14.12,4.2t4.35,13.4H960.75Z"/><path class="cls-1" d="M993.79,505.68c0,2.77.4,4.63,1.2,5.56a4.54,4.54,0,0,0,6.56,0c.8-.93,1.2-2.79,1.2-5.56v-41.2h14.88v37.44a33.08,33.08,0,0,1-1.28,10,15.25,15.25,0,0,1-3.72,6.4,12.73,12.73,0,0,1-6,3.28,39.58,39.58,0,0,1-16.6,0,12.82,12.82,0,0,1-6.08-3.28,15.47,15.47,0,0,1-3.72-6.4,33.4,33.4,0,0,1-1.28-10V464.48h14.88Z"/><path class="cls-1" d="M1045,464.48a20.67,20.67,0,0,1,7.24,1.12,12.41,12.41,0,0,1,4.88,3.16,12.11,12.11,0,0,1,2.72,4.84,21.07,21.07,0,0,1,.84,6.08,16.59,16.59,0,0,1-2.32,9.28q-2.31,3.53-7.44,4.32v.16q5.37.48,7.36,3.76c1.34,2.19,2,5.2,2,9v7.2c0,.8,0,1.56.08,2.28s.14,1.37.24,2a5.33,5.33,0,0,0,.4,1.36c.22.32.43.63.64.92a3.33,3.33,0,0,0,1,.84v.8h-15.84A10.24,10.24,0,0,1,1046,519c-.18-1-.32-2-.4-3s-.13-2-.16-2.92,0-1.69,0-2.28v-3.84a27.73,27.73,0,0,0-.24-4,6.31,6.31,0,0,0-.84-2.52,3.18,3.18,0,0,0-1.52-1.28,6.27,6.27,0,0,0-2.28-.36h-3.92V521.6h-14.88V464.48Zm-5.44,24.16a5.71,5.71,0,0,0,4.72-1.88,7.53,7.53,0,0,0,1.52-4.92q0-3.6-1.48-5.12c-1-1-2.6-1.52-4.84-1.52h-2.88v13.44Z"/><path class="cls-1" d="M1098.75,464.48v12.16h-19v9.76h17.76v11.68h-17.76v11.36h19.68V521.6h-34.56V464.48Z"/><path class="cls-1" d="M1112.91,477.12V464.48H1150v12.64h-11.2V521.6H1124V477.12Z"/><path class="cls-1" d="M1150.83,479.4a24.13,24.13,0,0,1,3.44-9.2,14,14,0,0,1,6.32-5.2,28.92,28.92,0,0,1,19.2,0,14,14,0,0,1,6.32,5.2,24.13,24.13,0,0,1,3.44,9.2,90,90,0,0,1,0,27.28,24.13,24.13,0,0,1-3.44,9.2,13.26,13.26,0,0,1-6.32,5.08,31.08,31.08,0,0,1-19.2,0,13.26,13.26,0,0,1-6.32-5.08,24.13,24.13,0,0,1-3.44-9.2,90,90,0,0,1,0-27.28Zm14.48,23.2a34.24,34.24,0,0,0,.68,6,5.9,5.9,0,0,0,1.52,3.12,4.52,4.52,0,0,0,5.36,0,5.9,5.9,0,0,0,1.52-3.12,34.24,34.24,0,0,0,.68-6q.17-3.8.16-9.56t-.16-9.56a34.24,34.24,0,0,0-.68-6,5.9,5.9,0,0,0-1.52-3.12,4.52,4.52,0,0,0-5.36,0,5.9,5.9,0,0,0-1.52,3.12,34.24,34.24,0,0,0-.68,6c-.1,2.53-.16,5.72-.16,9.56S1165.21,500.07,1165.31,502.6Z"/><path class="cls-1" d="M450.6,550.16a3.29,3.29,0,0,0-3.12-1.76,3.9,3.9,0,0,0-2.68.88,6,6,0,0,0-1.52,3.12,35.22,35.22,0,0,0-.68,6c-.1,2.53-.16,5.72-.16,9.56s.06,7,.16,9.56a35.22,35.22,0,0,0,.68,6,6,6,0,0,0,1.52,3.12,3.9,3.9,0,0,0,2.68.88,3.56,3.56,0,0,0,2.24-.68,4.33,4.33,0,0,0,1.36-2.28,20.59,20.59,0,0,0,.68-4.28c.14-1.79.2-4,.2-6.76h14.4v4.24a25.75,25.75,0,0,1-1.6,9.84,15.33,15.33,0,0,1-4.24,6,14.08,14.08,0,0,1-6,3,31.75,31.75,0,0,1-7,.76,29.3,29.3,0,0,1-10.24-1.52,12.41,12.41,0,0,1-6.24-5.08,23.82,23.82,0,0,1-3.08-9.2,94.43,94.43,0,0,1-.84-13.64,82.11,82.11,0,0,1,1-13.84,23.5,23.5,0,0,1,3.4-9.2,13.56,13.56,0,0,1,6.32-5.08,26.31,26.31,0,0,1,9.68-1.56A25.23,25.23,0,0,1,456,539.6a14.3,14.3,0,0,1,5.72,3.64,14.08,14.08,0,0,1,3.2,5.68,25.8,25.8,0,0,1,1,7.48V560h-14.4v-3.2C451.56,553.55,451.24,551.33,450.6,550.16Z"/><path class="cls-1" d="M484.28,539.44v21h9.12v-21h14.88v57.12H493.4V573h-9.12v23.52H469.4V539.44Z"/><path class="cls-1" d="M546,539.44V551.6h-19v9.76h17.76V573H527.08V584.4h19.68v12.16H512.2V539.44Z"/><path class="cls-1" d="M572,550.16a3.29,3.29,0,0,0-3.12-1.76,3.9,3.9,0,0,0-2.68.88,5.9,5.9,0,0,0-1.52,3.12,34.24,34.24,0,0,0-.68,6q-.16,3.79-.16,9.56t.16,9.56a34.24,34.24,0,0,0,.68,6,5.9,5.9,0,0,0,1.52,3.12,3.9,3.9,0,0,0,2.68.88,3.58,3.58,0,0,0,2.24-.68,4.33,4.33,0,0,0,1.36-2.28,20.59,20.59,0,0,0,.68-4.28q.19-2.68.2-6.76h14.4v4.24a25.75,25.75,0,0,1-1.6,9.84,15.43,15.43,0,0,1-4.24,6,14.08,14.08,0,0,1-6,3,31.81,31.81,0,0,1-7,.76,29.3,29.3,0,0,1-10.24-1.52,12.33,12.33,0,0,1-6.24-5.08,23.82,23.82,0,0,1-3.08-9.2,94.43,94.43,0,0,1-.84-13.64,81.08,81.08,0,0,1,1-13.84,23.5,23.5,0,0,1,3.4-9.2,13.56,13.56,0,0,1,6.32-5.08,26.28,26.28,0,0,1,9.68-1.56,25.27,25.27,0,0,1,8.56,1.28,14.37,14.37,0,0,1,5.72,3.64,14.2,14.2,0,0,1,3.2,5.68,25.8,25.8,0,0,1,1,7.48V560H573v-3.2C573,553.55,572.68,551.33,572,550.16Z"/><path class="cls-1" d="M605.48,539.44v21.92h.16l11-21.92h15.84l-14.4,25,16.16,32.16h-17l-8.72-19.92-3.12,4.8v15.12H590.6V539.44Z"/><path class="cls-1" d="M642.68,539.44h16.08l5.6,19.92h.16l5.6-19.92h16.32l-14.56,34.64v22.48H657V574.08Z"/><path class="cls-1" d="M684,554.36a24.13,24.13,0,0,1,3.44-9.2,14,14,0,0,1,6.32-5.2,28.92,28.92,0,0,1,19.2,0,14,14,0,0,1,6.32,5.2,24.13,24.13,0,0,1,3.44,9.2,90,90,0,0,1,0,27.28,24.13,24.13,0,0,1-3.44,9.2,13.26,13.26,0,0,1-6.32,5.08,31.08,31.08,0,0,1-19.2,0,13.26,13.26,0,0,1-6.32-5.08,24.13,24.13,0,0,1-3.44-9.2,90,90,0,0,1,0-27.28Zm14.48,23.2a33.31,33.31,0,0,0,.68,6,5.9,5.9,0,0,0,1.52,3.12,4.52,4.52,0,0,0,5.36,0,5.9,5.9,0,0,0,1.52-3.12,34.24,34.24,0,0,0,.68-6q.16-3.79.16-9.56t-.16-9.56a34.24,34.24,0,0,0-.68-6,5.9,5.9,0,0,0-1.52-3.12,4.52,4.52,0,0,0-5.36,0,5.9,5.9,0,0,0-1.52,3.12,33.31,33.31,0,0,0-.68,6q-.16,3.79-.16,9.56T698.44,577.56Z"/><path class="cls-1" d="M741.8,580.64c0,2.77.4,4.63,1.2,5.56a4.54,4.54,0,0,0,6.56,0c.8-.93,1.2-2.79,1.2-5.56v-41.2h14.88v37.44a33.4,33.4,0,0,1-1.28,10,15.36,15.36,0,0,1-3.72,6.4,12.78,12.78,0,0,1-6,3.28,39.58,39.58,0,0,1-16.6,0,12.72,12.72,0,0,1-6.08-3.28,15.25,15.25,0,0,1-3.72-6.4,33.4,33.4,0,0,1-1.28-10V539.44H741.8Z"/><path class="cls-1" d="M792.12,539.44a20.67,20.67,0,0,1,7.24,1.12,12.41,12.41,0,0,1,4.88,3.16,12.23,12.23,0,0,1,2.72,4.84,21.07,21.07,0,0,1,.84,6.08,16.59,16.59,0,0,1-2.32,9.28q-2.33,3.52-7.44,4.32v.16c3.57.32,6,1.57,7.36,3.76s2,5.2,2,9v7.2c0,.8,0,1.56.08,2.28a17.23,17.23,0,0,0,.24,2,5.33,5.33,0,0,0,.4,1.36c.21.32.43.63.64.92a3.21,3.21,0,0,0,1,.84v.8H794a10.24,10.24,0,0,1-.84-2.64,28.76,28.76,0,0,1-.4-3c-.08-1-.13-2-.16-2.92s0-1.69,0-2.28v-3.84a27.73,27.73,0,0,0-.24-4,6.31,6.31,0,0,0-.84-2.52,3.22,3.22,0,0,0-1.52-1.28,6.27,6.27,0,0,0-2.28-.36h-3.92v22.88H768.84V539.44Zm-5.44,24.16a5.72,5.72,0,0,0,4.72-1.88,7.59,7.59,0,0,0,1.52-4.92q0-3.6-1.48-5.12t-4.84-1.52h-2.88V563.6Z"/><path class="cls-1" d="M863.16,539.44V551.6h-19v9.76H862V573H844.2V584.4h19.68v12.16H829.32V539.44Z"/><path class="cls-1" d="M891,567.36v12.16H866V567.36Z"/><path class="cls-1" d="M916,539.44l6,33.84h.16l6-33.84H949.4v57.12H935.48V554h-.16l-7.92,42.56H916.68L908.76,554h-.16v42.56H894.68V539.44Z"/><path class="cls-1" d="M984,539.44l13.92,57.12H982l-1.52-10H968.68l-1.52,10h-15.6l13.68-57.12Zm-9.44,11.68-4.08,24.24h8.32l-4.08-24.24Z"/><path class="cls-1" d="M1014.68,539.44v57.12H999.8V539.44Z"/><path class="cls-1" d="M1033.64,539.44v45H1052v12.16h-33.2V539.44Z"/><path class="cls-1" d="M1055.88,539.44h13.92v19.12L1068.12,580H1057.4l-1.52-21.44Zm13.76,44.48v12.64H1056.2V583.92Z"/></svg>